<svg width="539" height="623" viewBox="0 0 539 623" fill="none" xmlns="http://www.w3.org/2000/svg">
<path d="M537.581 85.817C536.931 84.337 535.451 83.117 533.851 83.257C532.501 83.387 531.421 84.397 530.441 85.367C526.661 89.137 522.871 92.897 519.081 96.657C518.711 92.257 518.341 87.797 517.031 83.577C514.411 75.187 508.181 68.267 500.841 63.447C487.791 54.867 471.01 52.507 455.861 56.277C426.25 63.637 406.6 91.797 402.991 121.077C401.431 133.697 397.021 147.937 388.651 157.807C385.721 161.257 380.301 166.417 375.581 166.487C374.371 166.257 374.181 164.477 374.141 163.297C373.911 152.357 372.341 141.037 369.171 130.587C368.121 127.287 366.491 123.177 365.491 119.947C365.121 118.777 364.931 117.827 365.101 116.967C365.851 114.477 368.331 112.207 369.551 109.787C378.061 95.387 389.451 82.247 394.951 66.637C397.931 58.817 394.511 51.207 389.511 45.027C379.411 32.557 362.241 20.647 348.751 11.337C344.301 8.34698 338.001 4.38698 333.561 2.44698C331.651 1.64698 329.461 1.40698 327.441 2.13698C316.001 7.66698 336.521 33.727 340.111 41.767C342.01 45.157 344.661 49.657 341.511 53.097C339.381 55.877 336.721 58.327 334.071 60.677C330.841 63.617 328.631 66.047 324.791 62.587C311.981 52.737 297.611 44.667 282.011 40.237C246.741 30.537 206.001 41.137 176.211 61.287C173.401 63.317 170.181 61.987 167.601 60.077C165.361 58.487 162.441 56.797 160.921 54.377L160.861 54.257C159.701 51.227 162.021 47.667 162.941 44.787C167.151 33.957 172.121 23.467 176.621 12.747C180.501 4.17698 176.651 -2.74302 166.841 1.07698C161.561 3.49698 155.991 7.43698 151.101 10.887C137.751 20.357 124.591 30.457 112.941 41.957C104.681 50.477 103.621 56.297 108.131 67.917C112.011 78.737 119.151 87.217 125.531 96.487C127.791 99.767 129.341 103.457 131.481 106.737C132.081 107.687 132.751 108.757 132.911 109.847C133.171 111.127 132.661 112.687 131.941 113.927C129.171 119.047 126.501 124.257 124.561 129.707C117.651 149.027 113.681 173.707 121.571 192.847C122.901 196.557 119.441 196.297 116.761 195.857C113.081 195.367 109.681 194.897 106.121 193.257C102.891 191.797 99.8605 189.627 98.1905 186.467C95.4505 180.987 91.7105 173.237 84.8205 171.717C80.5105 170.447 74.7205 172.967 71.6705 169.657C70.0505 167.747 68.7405 165.407 66.5505 164.047C61.4105 160.757 54.0005 158.537 47.9605 159.417C44.7906 159.737 42.0005 162.587 38.8305 162.727C37.2905 162.647 36.0105 161.397 34.7705 160.547C29.1205 156.367 21.1205 158.637 15.8105 162.747C10.6005 167.177 6.05054 174.677 2.83054 181.147C-1.66946 190.837 -1.11947 207.597 6.77053 215.917C8.80053 218.047 11.3705 219.797 13.9705 221.227C14.9305 221.777 15.7605 222.367 16.3005 223.127C17.2405 224.347 17.3005 226.207 17.3805 227.797C17.6805 242.407 33.9405 248.067 46.8405 248.207C50.2405 248.437 55.6705 248.787 58.2805 248.967C60.2105 249.077 60.7005 249.457 60.9205 250.907C62.0905 255.877 63.1805 265.587 64.8805 271.217C69.5105 288.367 73.3305 305.797 78.2205 322.777C79.6505 327.937 83.4205 332.757 81.8305 338.347C79.0705 350.497 78.5505 361.907 85.0105 372.077C90.7205 381.547 104.421 386.467 115.351 389.157C124.391 392.087 126.151 386.287 131.781 396.597C152.931 437.087 173.001 478.357 186.901 521.937C189.691 530.027 188.651 538.687 189.781 547.007C190.381 551.417 192.091 556.017 194.901 559.537C197.681 563.107 201.291 565.907 204.321 569.257C207.161 572.317 209.261 576.237 211.901 579.377C216.141 584.397 222.851 589.027 223.321 596.107C223.661 600.347 218.311 604.017 214.351 605.647C210.681 607.287 206.101 608.207 204.131 611.577C201.371 616.087 204.201 620.987 209.101 621.917C214.581 623.137 225.301 623.077 233.431 622.807C244.691 622.367 256.091 621.797 266.971 618.517C269.601 617.617 272.051 616.867 274.391 615.317C277.381 613.447 278.581 610.137 280.581 607.397C282.921 603.957 285.781 600.187 287.471 596.427C288.591 594.037 288.541 591.377 289.151 588.847C291.021 581.957 296.821 576.747 299.931 570.477C301.051 567.967 301.26 564.887 300.671 562.077C300.28 559.597 299.111 556.887 299.671 554.387C300.141 552.347 301.641 550.617 302.521 548.287C310.251 528.247 318.351 508.247 326.851 488.327C328.781 483.927 330.771 479.567 332.851 475.247C340.971 458.987 346.041 441.297 351.291 423.707C353.241 416.527 355.951 409.947 357.591 402.697C358.291 399.357 358.921 394.917 359.771 391.877C360.311 390.057 362.291 389.857 364.021 389.667C371.281 388.857 378.491 386.887 384.851 383.347C387.131 382.087 389.181 380.707 391.241 379.117C395.431 375.767 399.711 373.077 402.091 368.197C406.171 361.427 406.361 353.357 407.111 345.887C407.621 341.907 408.721 338.057 410.031 334.157C418.821 307.247 426.911 279.807 431.651 252.047C432.211 247.837 437.581 249.377 440.691 248.807C448.751 247.977 458.231 247.627 465.311 243.737C469.591 241.307 473.241 237.207 474.701 232.437C476.251 229.077 473.911 224.077 477.541 221.897C485.601 218.087 491.421 210.557 492.371 201.547C495.881 183.437 477.101 147.327 455.851 161.757C453.901 162.937 451.741 162.327 449.881 161.237C447.651 160.027 445.331 159.237 442.811 159.217C437.441 159.107 431.681 160.887 427.021 163.727C424.651 164.977 422.681 167.707 421.381 169.607C417.911 173.927 409.341 168.397 402.541 174.527C396.791 178.817 397.1 185.507 391.361 190.167C385.401 195.127 376.591 195.967 369.211 196.267C368.011 196.217 365.761 196.427 365.791 194.817C366.151 192.647 368.001 189.827 369.691 188.847C371.951 187.787 374.741 187.937 377.081 187.097C406.291 176.497 420.421 144.897 425.131 116.167C426.641 106.947 428.061 97.027 433.861 89.357C440.54 80.537 450.491 74.197 461.361 72.057C473.871 69.577 487.391 72.677 497.571 80.357C502.151 83.817 506.211 88.417 507.381 94.027C504.201 92.947 501.021 91.867 497.841 90.787C496.161 90.227 494.181 89.687 492.741 90.717C490.85 92.067 491.311 94.957 492.091 97.147C495.291 106.267 500.081 114.827 503.721 123.787C505.131 127.247 506.471 130.737 507.751 134.257C508.781 137.047 509.381 140.807 511.311 143.127C514.701 147.197 518.471 142.327 519.921 139.237C522.361 134.007 524.801 128.797 527.241 123.567C532.171 113.017 537.191 102.167 538.041 90.557C538.151 88.957 538.171 87.277 537.541 85.807L537.581 85.817ZM370.791 228.427C370.981 232.877 375.391 235.707 379.091 237.247C380.541 237.857 383.001 237.207 383.331 239.477C377.551 244.867 372.151 250.837 367.041 256.937C364.151 260.387 361.691 264.297 358.871 267.807C343.811 286.547 329.35 304.917 314.301 323.447C312.6 325.547 308.151 332.577 305.971 333.477C303.901 334.337 299.091 334.137 296.621 334.457C274.871 337.287 251.931 338.537 229.691 340.967C217.181 342.327 211.941 344.097 199.031 342.347C195.691 341.897 195.521 343.777 192.141 340.427C186.911 335.237 181.911 327.477 177.191 321.647C163.061 304.167 148.911 286.507 134.771 268.867C126.711 258.807 119.481 248.177 109.821 239.417L109.741 238.147C115.111 237.357 121.501 234.317 122.281 228.387C123.441 228.097 124.561 228.727 125.691 228.697C129.291 228.567 134.801 228.367 138.251 227.767C140.201 227.427 153.771 222.857 154.341 223.467C154.161 227.667 154.551 231.927 155.701 235.977C156.271 237.997 157.951 240.627 158.151 241.727C158.601 244.307 157.011 248.417 157.731 251.887C158.431 255.207 163.131 260.207 164.011 263.017C164.511 264.607 164.321 267.407 164.821 269.277C166.151 274.197 171.561 276.257 176.201 276.927C181.541 277.687 184.921 275.757 189.511 275.347C193.721 274.987 192.451 277.527 194.041 279.747C194.721 280.707 197.301 282.357 197.341 282.577C197.511 283.397 195.701 289.207 195.411 290.897C194.271 297.627 193.871 307.467 195.701 313.987C197.021 318.687 198.431 321.267 203.281 322.777C204.141 323.047 205.891 322.417 206.431 323.117C206.771 323.557 206.771 324.827 207.371 325.707C209.761 329.207 216.721 331.327 220.311 328.477C221.031 327.907 220.871 327.017 221.381 326.427C222.951 324.647 224.501 325.807 226.401 325.777C229.451 325.717 232.061 324.007 233.651 321.537C238.521 313.927 238.001 304.917 237.841 296.327L254.961 296.347C253.531 304.357 252.961 318.557 260.431 323.777C263.681 326.037 266.911 324.007 268.561 324.867C269.221 325.217 269.571 326.457 270.251 327.027C276.151 331.987 279.141 331.267 283.461 325.117C283.891 324.507 284.741 322.087 284.951 321.957C285.161 321.817 286.561 322.497 287.631 322.257C288.691 322.027 292.031 317.917 292.521 316.787C295.581 309.777 288.961 294.647 284.941 288.457C292.001 284.027 299.391 279.637 303.441 271.907C303.931 271.567 306.431 272.987 307.191 273.237C308.571 273.687 309.881 273.537 311.281 273.627C315.141 273.877 323.261 274.747 326.041 271.707C327.541 270.067 330.961 264.607 331.761 262.457C332.481 260.527 332.771 255.747 333.271 254.897C333.741 254.087 336.091 252.447 337.001 250.837C339.791 245.927 337.421 243.527 337.921 239.147C338.16 237.037 340.201 234.897 340.911 232.997C341.821 230.567 342.271 227.607 343.081 225.107C352.051 227.757 361.381 228.757 370.751 228.407L370.791 228.427Z" fill="black"/>
<path d="M324.93 70.297C325.93 71.167 327.37 73.047 328.47 74.087C354.9 99.277 370.6 133.717 368.14 171.017C367.53 180.307 362.38 195.487 355.9 202.297C341.89 217.017 298.03 219.847 278.06 222.137C272.52 222.777 266.81 224.137 261.22 224.567C249.76 225.447 238.9 223.727 227.54 222.947C201.93 221.187 176.6 220.087 152.18 211.237C140.83 207.127 134.73 204.447 129.66 192.957C120.89 173.087 123.74 156.327 129.14 135.987C136 110.167 151.92 89.447 171.22 71.997C184.35 60.117 201.16 52.137 218.24 46.977C253.79 36.227 297.02 45.967 324.94 70.297H324.93Z" fill="#EC2128"/>
<path d="M320.99 163.297C324.72 158.427 326.86 154.217 328.25 147.987C330.48 137.937 328.37 116.257 314.54 116.277C305.54 116.297 287.93 131.497 279.14 135.347C275.5 136.517 272.21 134.747 268.58 134.817C267.15 138.387 272.32 139.587 272.83 140.357C273.11 140.787 273.76 148.717 274.28 150.607C278.21 164.737 291.17 175.197 306.21 173.317C313.95 172.347 316.69 168.927 321 163.297H320.99Z" fill="#EC2128"/>
<path d="M200.38 126.327C196.25 123.897 187.8 118.397 183.44 117.967C179.38 117.567 174.87 119.377 172.3 122.587C160.7 137.047 170.22 172.277 190.15 174.917C205.99 177.017 219.48 165.247 222.76 150.197C223.09 148.707 223.07 142.717 223.54 141.997C224.03 141.237 227.65 141.037 228.13 138.097C228.71 134.537 223.77 137.197 221.93 137.387C216.07 138.007 205.55 129.357 200.39 126.327H200.38Z" fill="#EC2128"/>
<path d="M239.61 154.527C237.93 154.947 235.12 157.217 237.35 158.697C239.95 160.427 243.78 158.807 246.47 158.937C248.95 159.067 254.93 162.107 255.45 158.347C255.87 155.237 249.37 154.337 247.09 154.357C245.83 154.367 244.64 154.887 243.29 154.937C242.18 154.977 240.65 154.257 239.62 154.517L239.61 154.527Z" fill="#EC2128"/>
<path d="M218.46 170.797C216.17 169.307 210.7 173.187 209.27 174.947C208.48 175.917 205.69 182.007 205.29 183.327C201.7 195.017 211.55 199.117 220.8 201.357C236.67 205.207 269.31 206.477 284.33 200.357C295.14 195.957 297 187.247 291.5 177.437C290.14 175.017 285.43 168.827 282.25 170.817C281.77 171.817 281.16 173.647 280.37 174.367C277.54 176.927 262.27 179.057 257.96 179.127C250.08 179.247 228.84 177.687 221.78 175.367C219.04 174.467 219.11 173.387 218.46 170.807V170.797Z" fill="#EC2128"/>
<path d="M378.36 376.777C377.47 374.157 375.86 371.777 373.75 369.977C373.23 369.527 372.65 369.107 371.97 368.997C369.72 368.617 368.48 371.687 368.89 373.927C369.3 376.167 370.45 378.487 369.62 380.607C367.86 380.807 366.09 381.007 364.33 381.207C364.14 376.467 361.35 371.917 357.21 369.597C355.54 373.717 355.57 378.507 357.3 382.607C342.87 381.847 330.4 392.327 316.36 395.747C308.24 397.727 299.76 397.307 291.4 397.127C278.25 396.847 265.05 397.207 252.05 399.177C228.87 402.697 204.76 411.237 182.73 403.207C173.03 404.527 162.86 402.097 154.8 396.537C154.75 392.267 154.71 387.997 154.66 383.727C154.64 382.197 154.34 380.277 152.87 379.867C151.46 379.477 150.22 380.857 149.49 382.117C147.97 384.727 146.84 387.567 146.15 390.507C141.23 390.327 138.82 384.177 139.29 379.277C139.75 374.377 141.8 369.457 140.62 364.667C140.43 363.897 140.12 363.107 139.46 362.667C137.77 361.557 135.79 363.637 134.93 365.467C132.39 370.857 130.82 376.697 130.31 382.627C123.47 382.127 116.67 380.957 110.06 379.137C102.09 376.947 93.7403 373.287 89.8803 365.977C86.2303 359.077 87.5003 350.647 89.6203 343.137C91.6703 335.877 94.8903 329.427 101.27 325.087C108.08 320.447 119.48 325.317 126.15 328.087C148.72 337.487 171.06 349.077 195.42 351.157C216.2 352.937 236.86 347.627 257.63 345.747C284.97 343.277 314.28 346.357 338.15 332.817C344.88 329.007 350.99 323.937 358.3 321.417C373.18 316.287 391.55 324.467 397.07 339.207C402.59 353.947 393.53 372.607 378.36 376.767V376.777Z" fill="#FD9900"/>
<mask id="mask0_1_513" style="mask-type:luminance" maskUnits="userSpaceOnUse" x="87" y="319" width="312" height="88">
<path d="M378.36 376.777C377.47 374.157 375.86 371.777 373.75 369.977C373.23 369.527 372.65 369.107 371.97 368.997C369.72 368.617 368.48 371.687 368.89 373.927C369.3 376.167 370.45 378.487 369.62 380.607C367.86 380.807 366.09 381.007 364.33 381.207C364.14 376.467 361.35 371.917 357.21 369.597C355.54 373.717 355.57 378.507 357.3 382.607C342.87 381.847 330.4 392.327 316.36 395.747C308.24 397.727 299.76 397.307 291.4 397.127C278.25 396.847 265.05 397.207 252.05 399.177C228.87 402.697 204.76 411.237 182.73 403.207C173.03 404.527 162.86 402.097 154.8 396.537C154.75 392.267 154.71 387.997 154.66 383.727C154.64 382.197 154.34 380.277 152.87 379.867C151.46 379.477 150.22 380.857 149.49 382.117C147.97 384.727 146.84 387.567 146.15 390.507C141.23 390.327 138.82 384.177 139.29 379.277C139.75 374.377 141.8 369.457 140.62 364.667C140.43 363.897 140.12 363.107 139.46 362.667C137.77 361.557 135.79 363.637 134.93 365.467C132.39 370.857 130.82 376.697 130.31 382.627C123.47 382.127 116.67 380.957 110.06 379.137C102.09 376.947 93.7403 373.287 89.8803 365.977C86.2303 359.077 87.5003 350.647 89.6203 343.137C91.6703 335.877 94.8903 329.427 101.27 325.087C108.08 320.447 119.48 325.317 126.15 328.087C148.72 337.487 171.06 349.077 195.42 351.157C216.2 352.937 236.86 347.627 257.63 345.747C284.97 343.277 314.28 346.357 338.15 332.817C344.88 329.007 350.99 323.937 358.3 321.417C373.18 316.287 391.55 324.467 397.07 339.207C402.59 353.947 393.53 372.607 378.36 376.767V376.777Z" fill="white"/>
</mask>
<g mask="url(#mask0_1_513)">
<path d="M132.8 358.707C136.5 357.707 140.78 356.287 143.85 358.577C145.54 359.837 146.35 361.917 147.51 363.687C151.14 369.237 159.02 371.527 165.06 368.787C167.22 375.797 169.9 383.477 176.33 386.987C179.59 388.767 183.41 389.207 187.12 389.297C208.92 389.817 229.33 379.547 250.54 374.467C267.86 370.327 286.05 369.667 303.53 373.077C308.31 374.007 313.18 375.247 317.99 374.507C331.84 372.367 340.14 354.957 354.15 354.537C357.7 354.427 361.48 355.457 364.67 353.887C366.44 353.017 367.78 351.437 369.53 350.527C372.52 348.977 376.21 349.597 379.36 348.397C388.76 344.837 387.58 328.637 396.99 325.107C403.75 322.577 410.9 329.107 412.76 336.077C414.62 343.057 413.22 350.467 413.93 357.657C414.3 361.397 415.22 365.337 413.72 368.787C412.42 371.767 409.55 373.727 406.81 375.487C397.82 381.237 388.61 386.637 379.19 391.657C371.33 395.847 363.27 399.797 354.68 402.127C346 404.487 336.95 405.147 328.19 407.187C317.31 409.717 307 414.347 296.12 416.897C283.47 419.867 270.35 419.967 257.36 420.057C215.88 420.337 172.89 420.317 135.09 403.227C131.64 401.667 128.21 399.957 124.5 399.207C120.41 398.377 116.18 398.747 112.03 398.367C98.9903 397.187 87.0203 387.967 82.5403 375.667C79.0303 366.027 79.0603 339.417 94.0503 348.947C106.31 356.747 117.67 362.787 132.8 358.697V358.707Z" fill="#EA7711"/>
</g>
<path d="M353.95 391.017C337.45 434.357 320.96 477.687 304.46 521.027C304.59 518.287 304.71 515.447 303.63 512.927C302.55 510.417 299.88 508.357 297.19 508.907C292.55 509.877 292.12 516.777 288.19 519.417C283.94 522.267 277.63 518.947 273.26 521.617C268.97 524.237 269.8 531.427 273.89 534.347C277.98 537.267 283.68 536.717 288.3 534.747C292.92 532.777 296.92 529.577 301.38 527.277C297.4 533.307 296.14 540.667 293.5 547.387C290.86 554.107 285.9 560.837 278.75 561.837C276.81 562.107 274.77 561.947 272.98 562.737C271.19 563.527 269.84 565.837 270.94 567.457C271.59 568.427 272.84 568.767 273.98 568.987C279.56 570.057 285.36 569.897 290.87 568.527L283.31 579.527C273.01 577.437 261.75 578.847 253.09 584.797C244.44 590.757 238.95 601.617 240.76 611.957C234.15 612.147 227.54 612.337 220.94 612.527C229.38 609.587 234.53 599.457 231.94 590.907C229.42 582.597 221.12 577.137 218.13 568.977C226.4 570.467 234.89 570.767 243.24 569.867C245.68 569.607 248.83 568.397 248.56 565.957C242.88 564.227 236.86 563.637 230.96 564.237C233.75 554.017 231.05 542.467 224.02 534.537C216.99 526.607 205.84 522.547 195.36 524.097C190.1 507.517 184.2 491.147 177.68 475.027C181.91 471.427 186.37 467.477 187.75 462.097C189.13 456.717 185.65 449.797 180.09 449.907C175.74 449.997 172.6 454.057 170.68 457.957C168.84 452.877 167.01 447.787 165.17 442.707C172.21 444.317 179.59 439.977 183.47 433.877C187.22 427.987 187.08 421.977 188.54 415.477C189.34 411.917 192.37 413.407 195.6 413.727C196.46 413.817 205.88 414.647 205.88 414.747C205.79 417.927 205.71 421.207 206.83 424.187C207.95 427.167 210.55 429.827 213.73 429.997C215.47 430.097 217.16 429.457 218.76 428.757C223.68 426.617 229.09 421.607 226.64 416.837C226.11 415.797 225.22 414.597 225.84 413.607C226.19 413.057 226.89 412.847 227.53 412.697C243.01 408.947 258.92 407.007 274.85 406.917C276.27 420.887 290.27 432.297 304.24 430.877C318.21 429.467 329.63 415.477 328.23 401.507C336.09 396.467 344.86 392.847 353.99 390.857C353.97 390.897 353.96 390.947 353.94 390.987L353.95 391.017Z" fill="#FFD6A1"/>
<path d="M270.04 416.207C268.86 414.917 265.37 413.917 263.69 414.697C260.49 416.167 258.81 424.337 255.13 425.177C250.66 426.197 245.51 422.207 241.38 423.947C239.11 424.897 235.93 431.317 236 433.747C236.13 438.277 244.41 441.597 248.3 441.487C254.25 441.317 267.4 434.127 270.72 429.237C273.06 425.797 272.84 419.277 270.03 416.217L270.04 416.207Z" fill="#FFD6A1"/>
<path d="M324.82 449.017C324.32 448.017 324.31 446.907 323.75 445.997C319.95 439.807 315.91 444.147 310.59 444.997C308.04 447.157 311.76 458.247 313.88 459.937C314.96 460.797 317.97 461.487 319.31 461.087C321.59 460.407 326.66 455.377 326.78 452.717C326.86 450.977 325.26 449.897 324.82 449.027V449.017Z" fill="#FFD6A1"/>
<path d="M221.57 448.907C214 443.237 204.45 442.807 197.57 449.747C182.89 464.537 189.04 502.247 210.34 507.737C216.93 509.437 223.27 507.157 227.8 502.287C240.43 488.717 236.09 459.777 221.57 448.907Z" fill="#FFD6A1"/>
<path d="M290.56 451.177C274.24 433.977 255.1 456.077 252.81 473.437C250.96 487.397 255.56 509.167 273.17 508.857C296.79 508.427 305.82 467.267 290.56 451.177Z" fill="#FFD6A1"/>
<path d="M233.94 534.437C238.03 536.447 241.41 534.207 244.94 534.057C247.26 533.957 249.29 535.147 251.85 534.487C254 533.927 256.15 530.487 256.71 528.427C258.57 521.587 254.67 504.377 252.1 497.507C249.33 490.107 241.46 487.537 236.56 494.727C231.58 502.027 229.66 520.107 230.47 528.937C230.57 530.017 230.57 530.547 231.11 531.557C231.26 531.837 233.76 534.347 233.94 534.437Z" fill="#FFD6A1"/>
<path d="M257.36 545.307C256.04 543.777 255.25 542.297 252.95 541.827C249.31 541.077 241.71 545.147 241.52 549.147C241.4 551.717 248.99 558.117 250.52 560.717C253.24 562.047 254.05 560.147 255.68 559.357C258.69 557.887 261.24 557.507 260.92 552.937C260.69 549.627 259.32 547.597 257.36 545.317V545.307Z" fill="#FFD6A1"/>
<path d="M59.5006 166.567C62.2306 167.637 64.7206 169.327 66.6806 171.507C67.5806 172.497 68.3906 173.607 69.4906 174.357C72.2406 176.237 75.9206 175.467 79.2306 175.827C83.3306 176.277 87.1806 178.677 89.3806 182.177C91.2406 185.137 91.9306 188.717 93.8206 191.657C96.5806 195.947 101.451 198.277 105.991 200.587C110.531 202.897 115.281 205.707 117.311 210.377C118.691 213.547 118.601 217.187 117.831 220.557C117.061 223.957 115.481 227.357 112.591 229.307C109.531 231.377 105.221 231.377 102.131 229.357C99.0406 227.337 97.3106 223.427 97.8506 219.777C98.2506 217.057 99.7606 214.637 100.741 212.067C101.731 209.497 102.111 206.367 100.451 204.177C98.4106 205.127 98.6206 208.257 97.0106 209.837C96.0306 210.797 94.5506 211.007 93.1806 211.137C89.8106 211.447 86.4206 211.527 83.0406 211.397C83.5506 209.327 84.9006 207.477 86.7306 206.367C87.6406 205.807 88.8506 205.057 88.5506 204.027C88.2606 203.047 86.8806 202.997 85.9006 203.287C81.9406 204.457 78.8406 207.637 76.6906 211.157C74.5406 214.677 73.1506 218.617 71.3906 222.357C69.7606 225.817 67.5606 229.327 64.0206 230.787C59.2106 232.767 53.4006 229.987 50.6506 225.577C47.9006 221.167 47.6306 215.617 48.3506 210.467C49.0206 205.697 50.4706 201.027 52.6006 196.707C53.6906 194.497 54.9606 192.377 56.3906 190.377C57.4606 188.887 59.0306 187.407 59.3206 185.507C59.6806 183.167 58.6706 181.637 56.3106 182.187C54.4006 182.637 52.7506 184.057 51.5106 185.507C48.5706 188.967 46.7406 193.197 45.0706 197.417C43.1906 202.187 41.4606 207.107 41.1406 212.227C40.8606 216.697 41.6806 221.227 43.5206 225.307C39.5206 226.997 34.6106 225.907 31.4006 222.967C28.4506 220.277 26.9306 216.357 26.0406 212.467C23.9806 203.417 25.1106 193.747 28.8506 185.277C32.4106 177.217 39.0606 168.057 48.0406 165.797C49.5706 165.417 51.1406 165.217 52.7206 165.227C55.0306 165.247 57.3406 165.707 59.4906 166.547L59.5006 166.567Z" fill="#EC2128"/>
<mask id="mask1_1_513" style="mask-type:luminance" maskUnits="userSpaceOnUse" x="25" y="165" width="94" height="67">
<path d="M59.5006 166.567C62.2306 167.637 64.7206 169.327 66.6806 171.507C67.5806 172.497 68.3906 173.607 69.4906 174.357C72.2406 176.237 75.9206 175.467 79.2306 175.827C83.3306 176.277 87.1806 178.677 89.3806 182.177C91.2406 185.137 91.9306 188.717 93.8206 191.657C96.5806 195.947 101.451 198.277 105.991 200.587C110.531 202.897 115.281 205.707 117.311 210.377C118.691 213.547 118.601 217.187 117.831 220.557C117.061 223.957 115.481 227.357 112.591 229.307C109.531 231.377 105.221 231.377 102.131 229.357C99.0406 227.337 97.3106 223.427 97.8506 219.777C98.2506 217.057 99.7606 214.637 100.741 212.067C101.731 209.497 102.111 206.367 100.451 204.177C98.4106 205.127 98.6206 208.257 97.0106 209.837C96.0306 210.797 94.5506 211.007 93.1806 211.137C89.8106 211.447 86.4206 211.527 83.0406 211.397C83.5506 209.327 84.9006 207.477 86.7306 206.367C87.6406 205.807 88.8506 205.057 88.5506 204.027C88.2606 203.047 86.8806 202.997 85.9006 203.287C81.9406 204.457 78.8406 207.637 76.6906 211.157C74.5406 214.677 73.1506 218.617 71.3906 222.357C69.7606 225.817 67.5606 229.327 64.0206 230.787C59.2106 232.767 53.4006 229.987 50.6506 225.577C47.9006 221.167 47.6306 215.617 48.3506 210.467C49.0206 205.697 50.4706 201.027 52.6006 196.707C53.6906 194.497 54.9606 192.377 56.3906 190.377C57.4606 188.887 59.0306 187.407 59.3206 185.507C59.6806 183.167 58.6706 181.637 56.3106 182.187C54.4006 182.637 52.7506 184.057 51.5106 185.507C48.5706 188.967 46.7406 193.197 45.0706 197.417C43.1906 202.187 41.4606 207.107 41.1406 212.227C40.8606 216.697 41.6806 221.227 43.5206 225.307C39.5206 226.997 34.6106 225.907 31.4006 222.967C28.4506 220.277 26.9306 216.357 26.0406 212.467C23.9806 203.417 25.1106 193.747 28.8506 185.277C32.4106 177.217 39.0606 168.057 48.0406 165.797C49.5706 165.417 51.1406 165.217 52.7206 165.227C55.0306 165.247 57.3406 165.707 59.4906 166.547L59.5006 166.567Z" fill="white"/>
</mask>
<g mask="url(#mask1_1_513)">
<path d="M14.5404 182.247C16.8604 183.397 19.5604 183.427 22.1404 183.337C23.2604 183.297 24.4504 183.267 25.4104 183.837C26.8104 184.667 27.2304 186.447 28.0504 187.857C30.2304 191.597 35.2704 192.517 39.5704 192.047C43.8704 191.577 48.1304 190.107 52.4304 190.607C53.5104 194.427 54.9704 198.237 57.5204 201.277C60.0704 204.317 63.9004 206.507 67.8604 206.277C72.2004 206.027 75.8204 203.067 79.4904 200.737C83.1604 198.397 87.9104 196.577 91.7304 198.657C94.4804 200.157 95.9004 203.257 97.1204 206.137C97.7004 207.497 98.2804 208.857 98.8604 210.217C100.23 213.447 101.69 216.797 104.34 219.097C106.99 221.397 111.2 222.307 114.01 220.207C115.84 218.837 117.73 216.237 119.72 217.357C120.22 217.637 120.57 218.117 120.84 218.617C122.79 222.187 121.13 226.937 117.93 229.457C114.73 231.977 110.43 232.637 106.37 232.467C104.45 232.387 102.48 232.137 100.78 231.237C98.0904 229.827 96.4004 226.967 95.7104 224.007C95.0304 221.047 95.2304 217.957 95.5004 214.937C90.7504 214.277 85.2204 213.857 81.8604 217.277C80.5604 218.597 79.7904 220.337 78.9404 221.987C77.2604 225.257 75.1804 228.327 72.7704 231.097C70.4104 233.817 67.6204 236.327 64.1804 237.407C58.4504 239.207 51.6204 236.127 49.1704 230.647C48.6104 229.387 48.2404 228.007 47.3504 226.967C45.8804 225.237 43.3304 224.837 41.0804 225.127C38.8304 225.417 36.6704 226.267 34.4204 226.557C29.8904 227.147 25.1204 225.317 22.1604 221.847C21.3904 220.937 20.6604 219.877 19.5204 219.507C17.9604 218.987 16.3104 219.987 14.6604 220.037C12.2804 220.117 10.2804 218.237 9.02038 216.217C7.76038 214.197 6.92038 211.887 5.29038 210.157C3.93038 208.707 2.09038 207.727 0.950384 206.107C-0.349616 204.247 -0.549613 201.857 -0.609613 199.587C-0.739613 194.917 -0.479625 190.117 1.30038 185.797C2.52038 182.837 4.87038 179.257 7.91038 177.887C12.0204 176.037 10.9704 180.497 14.5304 182.257L14.5404 182.247Z" fill="#BC000E"/>
</g>
<path d="M455.51 171.997C457.93 174.317 463.86 183.937 465.1 187.147C469.17 197.677 469.69 218.137 458.8 224.687C454.7 227.157 453.61 225.677 449.16 225.647C449.88 221.827 451.94 218.267 452.1 214.307C452.33 208.557 445.92 191.697 442.54 186.847C441.26 185.007 436.32 179.927 434.05 182.257C433.83 182.487 432.89 185.417 433.05 185.967C433.26 186.707 436.34 189.457 437.12 190.647C439.97 195.057 444.97 207.827 445.15 212.897C445.25 215.697 442.98 225.977 441.17 227.857C438.18 230.947 429.91 232.437 426.34 229.717C425.1 228.767 421.34 221.447 420.25 219.497C417.45 214.477 414.42 205.467 408.41 203.597C407.33 203.257 403.66 202.877 404.03 204.697C406.89 206.337 408.54 208.527 410.01 211.497C406.58 211.077 397.03 212.297 395.2 209.177C394.49 207.967 394.17 205.827 393.68 204.437C391.59 204.487 390.92 207.187 391.08 208.907C391.55 214.117 395.61 216.087 394.79 222.677C394.14 227.937 390.01 230.377 385.11 230.987C381.77 231.397 378.9 228.707 377.21 226.027C373.03 219.407 373.1 210.077 379.81 204.977C381.99 203.317 385.23 201.647 387.56 200.097C393.71 196.017 396.74 196.117 400.29 189.017C403.39 182.837 404.25 177.997 412.28 175.987C414.81 175.357 417.22 175.567 420.75 174.647C421.51 174.447 422.39 175.217 423.05 174.827C423.43 174.607 424.05 173.197 424.67 172.597C434.17 163.367 445.74 162.647 455.51 171.987V171.997Z" fill="#EC2128"/>
<mask id="mask2_1_513" style="mask-type:luminance" maskUnits="userSpaceOnUse" x="374" y="165" width="94" height="67">
<path d="M455.51 171.997C457.93 174.317 463.86 183.937 465.1 187.147C469.17 197.677 469.69 218.137 458.8 224.687C454.7 227.157 453.61 225.677 449.16 225.647C449.88 221.827 451.94 218.267 452.1 214.307C452.33 208.557 445.92 191.697 442.54 186.847C441.26 185.007 436.32 179.927 434.05 182.257C433.83 182.487 432.89 185.417 433.05 185.967C433.26 186.707 436.34 189.457 437.12 190.647C439.97 195.057 444.97 207.827 445.15 212.897C445.25 215.697 442.98 225.977 441.17 227.857C438.18 230.947 429.91 232.437 426.34 229.717C425.1 228.767 421.34 221.447 420.25 219.497C417.45 214.477 414.42 205.467 408.41 203.597C407.33 203.257 403.66 202.877 404.03 204.697C406.89 206.337 408.54 208.527 410.01 211.497C406.58 211.077 397.03 212.297 395.2 209.177C394.49 207.967 394.17 205.827 393.68 204.437C391.59 204.487 390.92 207.187 391.08 208.907C391.55 214.117 395.61 216.087 394.79 222.677C394.14 227.937 390.01 230.377 385.11 230.987C381.77 231.397 378.9 228.707 377.21 226.027C373.03 219.407 373.1 210.077 379.81 204.977C381.99 203.317 385.23 201.647 387.56 200.097C393.71 196.017 396.74 196.117 400.29 189.017C403.39 182.837 404.25 177.997 412.28 175.987C414.81 175.357 417.22 175.567 420.75 174.647C421.51 174.447 422.39 175.217 423.05 174.827C423.43 174.607 424.05 173.197 424.67 172.597C434.17 163.367 445.74 162.647 455.51 171.987V171.997Z" fill="white"/>
</mask>
<g mask="url(#mask2_1_513)">
<path d="M464.48 188.177C461.24 193.107 455.55 196.337 449.66 196.597C444.66 196.827 439.8 195.057 434.81 194.597C429.83 194.137 424.02 195.507 421.74 199.957C420.92 201.557 420.63 203.427 419.5 204.827C416.64 208.357 410.99 206.547 407.04 204.317C403.09 202.087 397.81 199.787 394.44 202.827C390.91 206.007 392.76 212.437 389.5 215.897C385.85 219.767 379.14 216.977 374.23 219.017C369.93 220.797 367.97 226.297 369.27 230.767C370.57 235.237 374.46 238.597 378.77 240.337C383.09 242.077 387.83 242.417 392.48 242.567C403.26 242.907 414.06 242.337 424.84 242.547C438.55 242.817 452.3 244.357 465.94 242.907C479.58 241.457 493.49 236.587 502.5 226.257C511.51 215.927 514.09 199.307 505.76 188.407C502.47 184.097 499.42 180.087 496.42 175.627C493.73 171.617 490.59 169.327 485.91 172.007C481.51 174.527 480.92 180.197 477.6 183.647C475.84 185.477 473.55 186.837 471.14 187.597C470.38 187.837 464.54 188.087 464.47 188.197L464.48 188.177Z" fill="#BC000E"/>
</g>
<path d="M370.63 34.397C374.62 37.847 383.51 45.5069 386.52 49.2369C391.77 55.7669 391.57 63.7769 387.8 71.0069C381.94 82.2569 371.52 95.3369 364.41 106.357C363.75 107.377 363.39 108.637 362.8 109.647C362.62 109.957 362.7 110.767 361.87 110.337C361.41 110.097 358.56 103.607 357.88 102.357C351.6 90.9969 343.63 80.0069 333.86 71.4369V70.6369C335.96 69.3669 337.84 66.7569 339.83 64.9069C345.21 59.8969 355.28 55.4269 351.48 46.7469C345.81 37.4069 339.81 28.2069 334.3 18.7769C333.05 16.6269 329.34 10.8969 328.71 9.13694C326.66 3.44694 332.74 6.72694 335.11 8.17694C346.11 14.9269 360.85 25.937 370.64 34.397H370.63Z" fill="#131519"/>
<mask id="mask3_1_513" style="mask-type:luminance" maskUnits="userSpaceOnUse" x="328" y="5" width="63" height="106">
<path d="M370.63 34.397C374.62 37.847 383.51 45.5069 386.52 49.2369C391.77 55.7669 391.57 63.7769 387.8 71.0069C381.94 82.2569 371.52 95.3369 364.41 106.357C363.75 107.377 363.39 108.637 362.8 109.647C362.62 109.957 362.7 110.767 361.87 110.337C361.41 110.097 358.56 103.607 357.88 102.357C351.6 90.9969 343.63 80.0069 333.86 71.4369V70.6369C335.96 69.3669 337.84 66.7569 339.83 64.9069C345.21 59.8969 355.28 55.4269 351.48 46.7469C345.81 37.4069 339.81 28.2069 334.3 18.7769C333.05 16.6269 329.34 10.8969 328.71 9.13694C326.66 3.44694 332.74 6.72694 335.11 8.17694C346.11 14.9269 360.85 25.937 370.64 34.397H370.63Z" fill="white"/>
</mask>
<g mask="url(#mask3_1_513)">
<path d="M376.71 56.2269C376.83 56.6269 376.94 57.0269 377.03 57.4369C377.74 60.7769 377.09 64.2469 376.34 67.5769C372 86.8569 364.1 105.327 353.16 121.787C352.51 122.767 351.82 123.807 351.8 124.987C351.76 126.627 352.99 127.977 354.14 129.137C359.44 134.497 364.75 139.867 370.05 145.227C386.97 118.667 396.2 87.8969 412.25 60.8069C414.1 57.6769 418.62 51.3069 417.09 47.3769C415.69 43.7869 407.18 40.0969 403.99 38.0169C390.72 29.3769 377.45 20.7369 364.18 12.0969C350.41 3.12691 335.79 -6.12309 319.38 -7.04309C336.07 10.5569 352.76 28.1569 369.45 45.7669C372.4 48.8769 375.45 52.1869 376.72 56.2269H376.71Z" fill="black"/>
<path d="M344.22 46.5769L370.97 49.9669L344.86 53.7369L344.22 46.5769Z" fill="white"/>
<path d="M340.311 34.5669L355.951 36.1869L341.391 38.6969L340.311 34.5669Z" fill="white"/>
</g>
<path d="M168.391 20.457L158.041 38.947C156.161 42.297 154.271 45.687 153.131 49.357C152.591 51.077 152.231 52.997 152.951 54.647C153.471 55.847 154.481 56.747 155.471 57.607C159.571 61.147 163.791 64.567 168.001 67.977C156.121 77.917 145.761 89.677 137.411 102.717C133.751 93.877 127.051 86.727 121.491 78.937C118.261 74.407 115.391 69.487 113.791 64.127C113.021 61.557 112.301 58.857 112.351 56.157C112.371 54.857 112.551 53.497 113.201 52.347C114.901 49.317 117.471 46.987 119.901 44.587C121.641 42.877 123.401 41.177 125.181 39.507C128.741 36.157 132.371 32.897 136.071 29.717C143.481 23.357 151.191 17.337 159.151 11.677C162.341 9.41698 165.561 7.21698 168.831 5.06698C169.981 4.30698 171.321 3.52698 172.651 3.86698C174.131 4.24698 174.971 5.93698 174.891 7.46698C174.811 8.99698 174.041 10.397 173.291 11.737C171.661 14.647 170.031 17.557 168.401 20.467L168.391 20.457Z" fill="#131519"/>
<mask id="mask4_1_513" style="mask-type:luminance" maskUnits="userSpaceOnUse" x="112" y="3" width="63" height="100">
<path d="M168.391 20.457L158.041 38.947C156.161 42.297 154.271 45.687 153.131 49.357C152.591 51.077 152.231 52.997 152.951 54.647C153.471 55.847 154.481 56.747 155.471 57.607C159.571 61.147 163.791 64.567 168.001 67.977C156.121 77.917 145.761 89.677 137.411 102.717C133.751 93.877 127.051 86.727 121.491 78.937C118.261 74.407 115.391 69.487 113.791 64.127C113.021 61.557 112.301 58.857 112.351 56.157C112.371 54.857 112.551 53.497 113.201 52.347C114.901 49.317 117.471 46.987 119.901 44.587C121.641 42.877 123.401 41.177 125.181 39.507C128.741 36.157 132.371 32.897 136.071 29.717C143.481 23.357 151.191 17.337 159.151 11.677C162.341 9.41698 165.561 7.21698 168.831 5.06698C169.981 4.30698 171.321 3.52698 172.651 3.86698C174.131 4.24698 174.971 5.93698 174.891 7.46698C174.811 8.99698 174.041 10.397 173.291 11.737C171.661 14.647 170.031 17.557 168.401 20.467L168.391 20.457Z" fill="white"/>
</mask>
<g mask="url(#mask4_1_513)">
<path d="M125.921 56.227C125.801 56.627 125.691 57.027 125.601 57.437C124.891 60.777 125.541 64.247 126.291 67.577C130.631 86.857 138.531 105.327 149.471 121.787C150.121 122.767 150.811 123.807 150.831 124.987C150.871 126.627 149.641 127.977 148.491 129.137C143.191 134.497 137.881 139.867 132.581 145.227C115.661 118.667 106.431 87.897 90.3808 60.807C88.5308 57.677 84.0108 51.307 85.5408 47.377C86.9408 43.787 95.4508 40.097 98.6408 38.017C111.911 29.377 125.181 20.737 138.451 12.097C152.221 3.12703 166.841 -6.12297 183.251 -7.04297C166.561 10.557 149.871 28.157 133.181 45.767C130.231 48.877 127.181 52.187 125.911 56.227H125.921Z" fill="black"/>
<path d="M158.641 46.577L131.901 49.967L158.001 53.737L158.641 46.577Z" fill="white"/>
<path d="M162.551 34.567L146.911 36.187L161.471 38.697L162.551 34.567Z" fill="white"/>
</g>
<path d="M240.221 233.207C230.581 233.617 220.791 233.067 211.161 233.797C209.381 233.927 203.361 234.477 202.201 235.167C201.111 235.807 202.331 236.437 203.021 236.547C209.761 237.527 217.011 237.207 223.661 237.617C229.371 237.967 235.031 239.137 240.831 238.717C240.651 241.097 241.031 245.707 239.751 247.717C239.211 248.567 233.821 252.807 232.631 253.647C223.401 260.157 207.601 264.677 196.331 267.397C192.721 268.267 179.771 271.247 176.941 270.787C175.721 270.587 171.811 268.217 171.241 267.197C170.471 265.827 171.301 262.677 170.871 261.097C170.071 258.137 165.521 254.357 164.501 250.597C163.331 246.297 165.641 242.587 165.031 239.637C164.691 237.997 163.401 237.077 162.941 235.837C161.051 230.707 158.511 224.597 162.261 219.677C167.501 221.077 172.801 222.377 178.131 223.367C194.241 226.357 212.191 227.987 228.751 229.317C231.081 229.507 239.541 228.977 240.601 230.557L240.211 233.227L240.221 233.207Z" fill="#3C4451"/>
<path d="M235.351 245.747C236.051 244.747 234.691 242.097 233.101 242.627C227.721 244.817 218.811 244.897 213.861 247.337C212.931 247.797 213.071 247.917 212.571 248.787C213.441 249.977 214.841 249.647 216.081 249.597C218.141 249.507 234.801 246.557 235.361 245.757L235.351 245.747Z" fill="#3C4451"/>
<path d="M331.51 249.437C330.73 250.407 328.86 250.907 327.99 252.707C326.48 255.837 328.09 259.187 325.06 262.837C324.38 263.647 320.73 266.107 319.83 266.347C317.89 266.867 309.43 265.227 306.98 264.777C296.03 262.747 284.56 260.017 274.19 255.677C269.83 253.857 265.75 251.117 261.21 249.627L261.5 237.087C261.88 236.717 270.63 237.687 272.1 237.677C275.77 237.637 290.63 237.397 292.77 236.547C293.45 236.277 294.25 236.197 294.13 235.197C293.61 233.037 278.36 233.887 275.88 232.727L261.5 233.287L261.54 230.057C287.16 227.197 313.42 226.117 337.94 217.527C338.48 217.937 338.55 217.967 338.54 218.637C338.49 221.907 336.3 228.227 334.95 231.387C334.01 233.597 331.49 236.337 331.24 238.597C330.88 241.767 334.81 245.387 331.52 249.447L331.51 249.437Z" fill="#3C4451"/>
<path d="M267.301 243.157C266.781 243.327 266.261 243.827 266.401 244.427C268.401 245.647 279.281 251.107 280.811 250.467C282.161 249.907 282.591 248.877 281.671 247.657C280.511 246.137 269.391 242.487 267.301 243.157Z" fill="#3C4451"/>
<path d="M291.261 268.857C291.431 268.907 291.431 269.507 291.701 269.587C293.011 269.987 295.421 270.167 296.871 270.267C297.801 271.187 294.451 275.197 293.621 275.997C281.591 287.657 252.281 290.707 236.221 289.297C222.701 288.117 207.361 283.747 197.331 274.337C202.131 271.827 208.161 272.037 213.341 270.767C218.021 269.617 227.881 265.817 231.771 263.087C234.941 260.867 237.531 257.397 241.671 256.107C242.771 256.107 244.061 258.317 245.351 258.947C249.491 260.967 256.871 259.917 259.331 255.807L260.041 255.637L269.091 261.317C276.401 265.137 283.541 266.537 291.261 268.847V268.857Z" fill="#AD1A1A"/>
<path d="M505.861 76.057C506.891 77.397 507.801 78.847 508.571 80.397C497.441 69.187 481.231 63.097 465.511 64.627C449.791 66.157 434.921 75.407 426.941 89.047C417.911 104.487 418.011 123.537 411.991 140.387C405.111 159.617 389.831 175.677 370.971 183.507C371.501 181.317 372.041 179.127 372.571 176.927C372.771 176.087 372.871 174.127 373.411 173.487C373.911 172.897 374.641 172.917 375.451 172.717C378.881 171.907 382.141 170.447 385.101 168.547C388.111 166.617 390.811 164.237 393.191 161.577C394.421 160.207 395.571 158.747 396.641 157.237C397.311 156.287 399.421 153.967 399.421 152.797C404.941 142.867 407.381 131.567 409.881 120.477C412.371 109.387 415.081 98.117 421.021 88.427C432.921 69.057 457.411 58.957 479.891 62.357C489.791 63.857 499.871 68.247 505.851 76.037L505.861 76.057Z" fill="#EC2128"/>
<path d="M100.871 234.547C105.911 238.077 99.4307 240.917 95.8007 241.367C81.6007 243.107 45.5107 245.457 33.2207 239.357C27.1807 236.357 22.2407 230.517 22.7107 223.487C25.5307 223.267 26.7907 226.127 28.7407 227.517C31.0007 229.127 34.8907 230.277 37.6707 230.547C39.9307 230.767 44.9307 229.787 46.2707 230.097C47.3107 230.337 47.7407 232.067 48.5307 232.747C53.6307 237.087 62.0307 237.587 68.1607 235.487C74.3307 233.377 76.7307 223.467 79.8307 218.327L92.6107 216.437L93.2007 217.557C91.8407 220.927 92.5107 224.837 94.0207 228.057C94.4307 228.937 97.6907 233.037 98.3507 233.517C99.0507 234.027 100.031 233.967 100.861 234.557L100.871 234.547Z" fill="#FD9900"/>
<path d="M413.2 218.117C415.22 223.477 417.79 228.647 421.14 233.297C423.46 235.697 427.53 236.437 430.76 236.717C436.23 237.187 443.43 234.967 446.26 230.067C451.24 230.717 457.67 231.017 462.26 228.687C464.37 227.617 467.18 224.087 469.11 223.557C470.14 223.267 470.25 224.697 470.21 225.297C469.74 233.517 461.7 239.627 454.18 241.277C438.43 244.727 418.08 243.197 402.12 241.447C399.1 241.117 389.67 242.037 390.41 236.847C390.71 234.767 393.24 234.417 394.51 233.277C399.5 228.797 401.45 223.077 399.68 216.417L413.21 218.117H413.2Z" fill="#FD9900"/>
<path d="M474.001 167.117C478.661 170.497 486.971 186.187 487.421 192.027C488.331 203.797 483.941 215.767 470.921 217.507C471.561 212.237 472.721 207.387 472.971 201.967C473.551 189.527 468.531 178.447 460.891 169.077C459.651 167.557 457.571 167.097 457.301 165.057C462.781 162.047 469.181 163.627 474.001 167.127V167.117Z" fill="#EC2128"/>
<mask id="mask5_1_513" style="mask-type:luminance" maskUnits="userSpaceOnUse" x="457" y="163" width="31" height="55">
<path d="M474.001 167.117C478.661 170.497 486.971 186.187 487.421 192.027C488.331 203.797 483.941 215.767 470.921 217.507C471.561 212.237 472.721 207.387 472.971 201.967C473.551 189.527 468.531 178.447 460.891 169.077C459.651 167.557 457.571 167.097 457.301 165.057C462.781 162.047 469.181 163.627 474.001 167.127V167.117Z" fill="white"/>
</mask>
<g mask="url(#mask5_1_513)">
<path d="M464.481 188.177C461.241 193.107 455.551 196.337 449.661 196.597C444.661 196.827 439.801 195.057 434.811 194.597C429.831 194.137 424.021 195.507 421.741 199.957C420.921 201.557 420.631 203.427 419.501 204.827C416.641 208.357 410.991 206.547 407.041 204.317C403.091 202.087 397.811 199.787 394.441 202.827C390.911 206.007 392.761 212.437 389.501 215.897C385.851 219.767 379.141 216.977 374.231 219.017C369.931 220.797 367.971 226.297 369.271 230.767C370.571 235.237 374.461 238.597 378.771 240.337C383.091 242.077 387.831 242.417 392.481 242.567C403.261 242.907 414.061 242.337 424.841 242.547C438.551 242.817 452.301 244.357 465.941 242.907C479.581 241.457 493.491 236.587 502.501 226.257C511.511 215.927 514.091 199.307 505.761 188.407C502.471 184.097 499.421 180.087 496.421 175.627C493.731 171.617 490.591 169.327 485.911 172.007C481.511 174.527 480.921 180.197 477.601 183.647C475.841 185.477 473.551 186.837 471.141 187.597C470.381 187.837 464.541 188.087 464.471 188.197L464.481 188.177Z" fill="#BC000E"/>
</g>
<path d="M33.8207 167.147C24.4707 176.537 19.3307 189.887 19.9707 203.117C20.0807 205.347 22.2107 216.057 21.9607 216.697C21.5307 217.807 20.2507 217.377 19.4007 217.157C15.4707 216.127 9.64071 211.837 7.91071 208.097C6.26071 204.537 4.91071 194.087 5.54071 190.287C6.41071 185.097 14.5207 170.747 18.6207 167.467C22.4207 164.417 30.9707 161.557 35.2107 165.017C36.3407 165.937 34.4207 166.537 33.8107 167.147H33.8207Z" fill="#EC2128"/>
<mask id="mask6_1_513" style="mask-type:luminance" maskUnits="userSpaceOnUse" x="5" y="163" width="31" height="55">
<path d="M33.8207 167.147C24.4707 176.537 19.3307 189.887 19.9707 203.117C20.0807 205.347 22.2107 216.057 21.9607 216.697C21.5307 217.807 20.2507 217.377 19.4007 217.157C15.4707 216.127 9.64071 211.837 7.91071 208.097C6.26071 204.537 4.91071 194.087 5.54071 190.287C6.41071 185.097 14.5207 170.747 18.6207 167.467C22.4207 164.417 30.9707 161.557 35.2107 165.017C36.3407 165.937 34.4207 166.537 33.8107 167.147H33.8207Z" fill="white"/>
</mask>
<g mask="url(#mask6_1_513)">
<path d="M14.5409 182.247C16.8609 183.397 19.5609 183.427 22.1409 183.337C23.2609 183.297 24.4509 183.267 25.4109 183.837C26.8109 184.667 27.2309 186.447 28.0509 187.857C30.2309 191.597 35.2709 192.517 39.5709 192.047C43.8709 191.577 48.1309 190.107 52.4309 190.607C53.5109 194.427 54.9709 198.237 57.5209 201.277C60.0709 204.317 63.9009 206.507 67.8609 206.277C72.2009 206.027 75.8209 203.067 79.4909 200.737C83.1609 198.397 87.9109 196.577 91.7309 198.657C94.4809 200.157 95.9009 203.257 97.1209 206.137C97.7009 207.497 98.2809 208.857 98.8609 210.217C100.231 213.447 101.691 216.797 104.341 219.097C106.991 221.397 111.201 222.307 114.011 220.207C115.841 218.837 117.731 216.237 119.721 217.357C120.221 217.637 120.571 218.117 120.841 218.617C122.791 222.187 121.131 226.937 117.931 229.457C114.731 231.977 110.431 232.637 106.371 232.467C104.451 232.387 102.481 232.137 100.781 231.237C98.0909 229.827 96.4009 226.967 95.7109 224.007C95.0309 221.047 95.2309 217.957 95.5009 214.937C90.7509 214.277 85.2209 213.857 81.8609 217.277C80.5609 218.597 79.7909 220.337 78.9409 221.987C77.2609 225.257 75.1809 228.327 72.7709 231.097C70.4109 233.817 67.6209 236.327 64.1809 237.407C58.4509 239.207 51.6209 236.127 49.1709 230.647C48.6109 229.387 48.2409 228.007 47.3509 226.967C45.8809 225.237 43.3309 224.837 41.0809 225.127C38.8309 225.417 36.6709 226.267 34.4209 226.557C29.8909 227.147 25.1209 225.317 22.1609 221.847C21.3909 220.937 20.6609 219.877 19.5209 219.507C17.9609 218.987 16.3109 219.987 14.6609 220.037C12.2809 220.117 10.2809 218.237 9.02086 216.217C7.76086 214.197 6.92087 211.887 5.29087 210.157C3.93087 208.707 2.09087 207.727 0.950873 206.107C-0.349127 204.247 -0.549125 201.857 -0.609125 199.587C-0.739125 194.917 -0.479136 190.117 1.30086 185.797C2.52086 182.837 4.87086 179.257 7.91086 177.887C12.0209 176.037 10.9709 180.497 14.5309 182.257L14.5409 182.247Z" fill="#BC000E"/>
</g>
<path d="M217.26 536.437C218.31 537.747 219.18 540.967 220.14 542.527C221.19 544.217 224.61 548.287 225.14 549.517C226.3 552.267 228.15 562.387 224.14 563.367C217.03 562.967 210.98 562.417 204.99 558.217C203.87 557.427 203.82 556.717 203.1 555.987C202.88 555.767 202.08 555.937 201.84 555.687C197.76 551.637 197.83 542.867 197.25 537.637C196.89 534.427 196.14 531.297 195.69 528.087C199.75 528.527 203.83 528.267 207.66 529.987C209.18 530.667 216.36 535.307 217.26 536.427V536.437Z" fill="#EC2128"/>
<path d="M148.161 400.477C151.871 402.747 154.951 405.817 159.241 407.617C165.461 410.237 173.401 411.207 180.061 412.367C182.231 413.157 181.691 417.467 181.481 419.517C180.951 424.637 178.061 429.627 174.471 433.177C170.831 436.777 167.841 438.007 162.561 437.747C158.681 428.797 154.881 419.547 149.681 411.197C147.341 407.427 141.461 400.837 140.211 396.727C140.121 396.447 140.061 395.837 140.471 395.927C142.571 398.047 145.541 398.877 148.161 400.487V400.477Z" fill="#EC2128"/>
<path d="M227.62 320.147C226.91 320.737 225.96 320.917 225.06 320.847C226.26 318.567 227.12 308.087 223.25 308.427C219.83 308.727 220.8 314.877 220.01 317.707C219.8 318.457 217.61 323.297 217.33 323.457C216.17 324.127 213.96 323.327 212.96 322.497C208.85 319.097 210.4 310.217 208.73 305.627C207.63 305.417 207.42 306.107 207.06 306.937C206.29 308.717 205.26 317.167 204.92 317.587C204.59 317.637 204.27 317.297 204.11 317.047C200.95 312.237 201.65 298.977 202 293.297C202.13 291.087 202.22 288.817 202.22 286.587L212.43 291.867C217.75 293.317 223.13 294.837 228.57 295.727C229.57 295.887 231.27 294.997 232.43 296.357C233.24 297.527 232.14 299.217 232.11 300.487C232.01 304.907 231.5 309.467 230.33 313.897C229.92 315.437 228.75 319.197 227.62 320.147Z" fill="#AD1A1A"/>
<path d="M281.02 290.457C282.47 293.527 284.46 295.727 285.85 298.957C288.28 304.577 291.74 314.757 285.99 319.227C286.01 316.127 285.57 309.897 284.35 307.127C283.62 305.467 279.6 304.567 279.43 308.627C279.22 313.527 283.79 321.787 276.54 324.607C273.47 322.707 270.54 317.967 269.78 314.487C269.17 311.647 270.43 305.437 265.91 306.787C264.87 307.627 265.83 317.817 265.85 319.777C263.65 322.127 260.61 311.367 260.46 310.217C259.89 305.887 260.15 300.617 259.94 296.217L281.02 290.477V290.457Z" fill="#AD1A1A"/>
<path d="M319.651 404.617C319.281 412.517 314.961 420.547 307.701 423.697C301.831 426.247 294.731 425.247 289.371 421.757C284.451 418.547 279.851 412.597 278.871 406.697C282.031 405.277 288.951 406.767 292.571 406.797C295.371 406.817 298.171 406.837 300.971 406.857C304.451 406.877 307.941 406.907 311.391 406.467C314.211 406.107 316.981 405.447 319.661 404.497C319.661 404.537 319.661 404.587 319.661 404.627L319.651 404.617Z" fill="#EC2128"/>
<path d="M280.001 586.297C279.631 588.117 280.281 591.817 279.781 593.377C279.581 593.997 275.481 600.527 274.791 601.487C272.281 605.017 269.661 606.757 265.411 607.907C262.151 608.787 255.081 610.387 251.911 610.707C250.211 610.877 248.501 610.737 246.811 610.777C246.521 610.477 246.761 603.207 246.991 602.427C247.181 601.797 251.141 596.097 251.741 595.427C258.511 587.807 270.241 585.757 279.991 586.297H280.001Z" fill="#EC2128"/>
<path d="M515.661 129.317C512.271 122.617 508.88 115.907 505.5 109.207C504.98 108.177 500.65 99.147 503.99 101.257C507.26 103.317 510.53 105.387 513.8 107.447C515.25 108.367 516.981 109.317 518.601 108.757C519.341 108.507 519.94 107.957 520.48 107.397C523.88 103.867 525.91 98.887 530.2 96.537C526.7 108.017 521.81 119.067 515.68 129.387C515.67 129.367 515.66 129.337 515.64 129.317H515.661Z" fill="#EC2128"/>
<path d="M374.641 201.727C374.641 203.267 373.011 203.847 372.261 205.047C370.521 207.827 369.661 210.977 368.811 214.107L368.671 221.057L342.551 216.677C350.401 214.517 354.991 209.197 360.511 203.637L374.641 201.727Z" fill="#8E1414"/>
<path d="M130.731 205.757C131.121 206.067 131.321 206.797 131.841 207.067L151.071 216.947L123.881 221.307C124.781 216.017 123.441 209.837 120.621 205.257C120.131 204.457 116.891 201.077 117.351 200.637C120.331 201.897 125.391 201.777 128.091 203.217C128.961 203.677 129.741 204.977 130.721 205.747L130.731 205.757Z" fill="#8E1414"/>
<path d="M244.641 230.017C246.521 230.797 254.331 229.717 254.901 231.447C255.161 237.177 255.491 243.037 254.971 248.767C254.871 249.867 254.521 252.997 253.551 253.327C252.151 253.807 248.251 253.627 247.491 251.917L244.651 230.017H244.641Z" fill="#3C4451"/>
<mask id="mask7_1_513" style="mask-type:luminance" maskUnits="userSpaceOnUse" x="244" y="230" width="12" height="24">
<path d="M244.641 230.017C246.521 230.797 254.331 229.717 254.901 231.447C255.161 237.177 255.491 243.037 254.971 248.767C254.871 249.867 254.521 252.997 253.551 253.327C252.151 253.807 248.251 253.627 247.491 251.917L244.651 230.017H244.641Z" fill="white"/>
</mask>
<g mask="url(#mask7_1_513)">
<path d="M242.9 232.917C242.85 233.437 242.83 233.967 242.85 234.517C242.91 236.297 243.22 238.067 243.25 239.847C243.28 241.537 243.13 243.457 244.33 244.637C244.63 244.937 245.02 245.187 245.16 245.587C245.25 245.837 245.22 246.117 245.21 246.377C245.09 248.397 245.56 250.437 246.55 252.197C246.68 252.427 246.84 252.677 247.09 252.777C247.46 252.937 247.91 252.697 248.13 252.357C248.34 252.017 248.38 251.587 248.41 251.187C248.62 248.157 248.57 245.107 248.25 242.087C248 239.747 247.69 237.097 249.24 235.327C249.95 234.517 250.94 234.027 251.89 233.527C252.84 233.027 253.81 232.457 254.39 231.547C254.97 230.637 255.02 229.307 254.22 228.587C253.74 228.147 253.05 228.017 252.41 227.907C250.94 227.647 249.44 227.387 247.95 227.517C244.61 227.807 243.19 230.057 242.9 232.917Z" fill="#5B6572"/>
</g>
<path d="M291.741 522.437C294.171 520.637 296.411 517.947 297.411 515.047C300.061 515.087 299.111 520.157 298.511 521.867C296.371 527.997 283.761 531.007 278.061 530.297C275.751 530.007 275.461 527.517 276.711 526.687C276.991 526.497 282.081 526.657 283.391 526.317C285.301 525.817 290.151 523.607 291.741 522.427V522.437Z" fill="#127700"/>
<path d="M180.931 455.277L181.431 461.357L175.021 469.347L172.371 461.577C173.981 459.917 178.191 453.567 180.931 455.277Z" fill="#127700"/>
<path d="M218.461 414.477L220.681 420.347C218.601 420.907 216.1 423.847 213.94 422.597C213.57 422.387 211.63 414.857 212.01 414.417C214.35 415.437 216.131 414.537 218.461 414.477Z" fill="#127700"/>
<path d="M200.38 126.327C205.54 129.357 216.06 138.007 221.92 137.387C223.76 137.197 228.7 134.537 228.12 138.097C227.64 141.027 224.03 141.237 223.53 141.997C223.06 142.717 223.08 148.707 222.75 150.197C219.47 165.247 205.98 177.007 190.14 174.917C170.21 172.277 160.69 137.047 172.29 122.587C174.86 119.387 179.38 117.567 183.43 117.967C187.79 118.397 196.24 123.897 200.37 126.327H200.38ZM210.18 162.367C211.64 160.957 216.39 152.057 217.08 149.957C217.63 148.277 218.44 144.297 217.15 142.987L189.27 125.177C186.88 124.947 184.13 122.657 181.81 122.797C181.51 122.817 176.5 125.007 176.26 125.187C173.24 127.437 171.89 140.967 172.61 144.657C174.45 153.987 181.23 168.647 192.23 168.867C197.77 168.977 206.13 166.247 210.16 162.357L210.18 162.367Z" fill="black"/>
<path d="M218.46 170.797C219.11 173.377 219.04 174.457 221.78 175.357C228.84 177.677 250.08 179.247 257.96 179.117C262.27 179.047 277.54 176.917 280.37 174.357C281.16 173.647 281.77 171.807 282.25 170.807C285.43 168.817 290.14 175.007 291.5 177.427C297.01 187.237 295.14 195.947 284.33 200.347C269.31 206.467 236.67 205.197 220.8 201.347C211.54 199.097 201.7 194.997 205.29 183.317C205.7 181.997 208.49 175.907 209.27 174.937C210.69 173.177 216.16 169.297 218.46 170.787V170.797ZM209.96 193.437C210.11 193.587 213.12 195.447 213.49 195.617C219.93 198.717 247.79 201.637 255.77 201.757C262.5 201.857 281.911 200.107 287.041 195.997C292.701 191.467 289.23 181.007 284.55 176.727C273.6 185.357 259.27 185.237 246 184.317C239.62 183.877 226.25 182.687 220.76 180.187C219.46 179.597 215.77 176.717 214.99 176.717C211.82 176.747 209.41 186.237 209.25 188.927C209.18 190.077 209.15 192.617 209.96 193.437Z" fill="black"/>
<path d="M320.991 163.297C316.681 168.927 313.941 172.347 306.201 173.317C291.161 175.197 278.201 164.737 274.271 150.607C273.741 148.717 273.101 140.797 272.821 140.357C272.321 139.587 267.141 138.397 268.571 134.817C272.201 134.747 275.491 136.517 279.131 135.347C287.921 131.497 305.531 116.287 314.531 116.277C328.361 116.257 330.471 137.927 328.241 147.987C326.861 154.227 324.711 158.427 320.981 163.297H320.991ZM315.711 161.287C322.881 153.017 326.791 136.457 321.911 126.357C320.561 123.557 316.291 120.837 313.151 121.447C306.351 122.777 288.351 135.697 281.811 140.157C280.261 141.217 278.461 141.027 278.541 143.657C278.671 147.937 284.211 159.007 287.591 161.757C291.331 164.797 299.281 167.677 304.141 167.397C308.671 167.137 312.791 164.647 315.711 161.287Z" fill="black"/>
<path d="M239.611 154.527C240.641 154.267 242.161 154.987 243.281 154.947C244.631 154.897 245.831 154.377 247.081 154.367C249.361 154.347 255.871 155.247 255.441 158.357C254.931 162.117 248.941 159.077 246.461 158.947C243.781 158.807 239.941 160.437 237.341 158.707C235.121 157.227 237.921 154.957 239.601 154.537L239.611 154.527Z" fill="black"/>
<path d="M233.941 534.437C233.761 534.347 231.261 531.837 231.111 531.557C230.581 530.547 230.571 530.017 230.471 528.937C229.661 520.107 231.591 502.027 236.561 494.727C241.461 487.537 249.331 490.117 252.101 497.507C254.681 504.377 258.571 521.587 256.711 528.427C256.151 530.487 253.991 533.927 251.851 534.487C249.291 535.147 247.261 533.957 244.941 534.057C241.411 534.207 238.031 536.437 233.941 534.437ZM251.661 516.727C246.101 514.927 241.321 515.537 236.051 517.877C235.691 519.647 235.341 528.737 236.191 529.727C238.131 531.147 240.631 529.747 242.711 529.707C245.461 529.647 248.201 530.157 250.921 529.787C253.801 527.767 251.281 519.817 251.661 516.727Z" fill="black"/>
<path d="M290.561 451.177C305.821 467.267 296.791 508.427 273.171 508.857C255.561 509.177 250.961 487.397 252.811 473.437C255.111 456.077 274.241 433.967 290.561 451.177ZM287.971 454.297C272.361 438.537 257.361 463.547 256.621 478.327C256.031 490.077 263.391 509.777 278.561 502.987C293.601 496.257 299.511 465.947 287.981 454.297H287.971Z" fill="black"/>
<path d="M221.57 448.907C236.09 459.777 240.43 488.707 227.8 502.287C223.27 507.157 216.93 509.437 210.34 507.737C189.03 502.247 182.89 464.537 197.57 449.747C204.45 442.807 213.99 443.237 221.57 448.907ZM202.95 497.987C219.39 514.147 232.24 493.667 231.03 477.247C230.17 465.537 220.53 444.957 205.9 449.877C188.24 455.807 191.93 487.157 202.95 497.987Z" fill="black"/>
<path d="M270.04 416.207C272.85 419.277 273.07 425.787 270.73 429.227C267.4 434.127 254.25 441.307 248.31 441.477C244.42 441.587 236.14 438.267 236.01 433.737C235.94 431.307 239.12 424.887 241.39 423.937C245.51 422.197 250.67 426.187 255.14 425.167C258.81 424.327 260.49 416.157 263.7 414.687C265.38 413.917 268.87 414.917 270.05 416.197L270.04 416.207ZM240.29 435.617C245.38 436.997 247.49 437.047 252.27 434.817C254.96 433.567 263.97 428.017 265.82 426.067C267.76 424.007 267.15 421.187 264.78 419.847C262.94 426.237 257.32 433.037 249.81 431.137C249.57 431.077 249.58 430.377 249.12 430.237C247.95 429.877 245.91 428.947 245.23 428.807C242.86 428.327 241.46 433.997 240.29 435.617Z" fill="black"/>
<path d="M257.36 545.307C259.33 547.577 260.7 549.617 260.92 552.927C261.23 557.497 258.69 557.887 255.68 559.347C254.05 560.147 253.24 562.037 250.52 560.707C248.99 558.107 241.4 551.697 241.52 549.137C241.71 545.147 249.31 541.077 252.95 541.817C255.25 542.287 256.04 543.777 257.36 545.297V545.307ZM253.19 547.297C251.56 545.907 248.85 547.377 247.38 548.537C248.6 551.717 251.88 557.497 255.55 553.837C255.95 552.237 254.39 548.317 253.19 547.297Z" fill="black"/>
<path d="M324.821 449.017C325.261 449.887 326.861 450.977 326.781 452.707C326.661 455.367 321.581 460.397 319.311 461.077C317.971 461.477 314.961 460.797 313.881 459.927C311.761 458.237 308.041 447.147 310.591 444.987C315.911 444.137 319.951 439.787 323.751 445.987C324.311 446.897 324.321 448.007 324.821 449.007V449.017ZM318.041 448.147L314.801 448.417C315.271 449.677 316.941 456.287 317.801 456.287L320.581 453.327L318.041 448.147Z" fill="black"/>
<path d="M235.351 245.747C234.791 246.557 218.131 249.497 216.071 249.587C214.831 249.647 213.431 249.967 212.561 248.777C213.061 247.907 212.921 247.787 213.851 247.327C218.801 244.887 227.721 244.807 233.091 242.617C234.681 242.087 236.041 244.737 235.341 245.737L235.351 245.747Z" fill="black"/>
<path d="M267.301 243.157C269.391 242.487 280.511 246.137 281.671 247.657C282.601 248.877 282.161 249.907 280.811 250.467C279.281 251.107 268.401 245.647 266.401 244.427C266.261 243.827 266.781 243.327 267.301 243.157Z" fill="black"/>
<path d="M210.011 162.207C209.671 162.547 209.321 162.877 208.941 163.197C206.091 165.637 202.491 167.047 198.861 167.967C195.581 168.797 192.081 169.267 188.841 168.307C185.381 167.277 182.571 164.727 180.331 161.907C175.441 155.777 172.801 147.967 172.681 140.147C172.581 134.037 173.681 122.897 182.071 123.147C184.991 123.237 187.681 124.667 190.221 126.107C198.761 130.957 206.961 136.377 215.151 141.787C216.151 142.447 217.191 143.157 217.691 144.247C218.391 145.777 217.801 147.547 217.211 149.117C215.441 153.807 213.511 158.677 210.011 162.207Z" fill="#FFE35A"/>
<path d="M209.961 193.437C209.161 192.617 209.191 190.087 209.251 188.927C209.411 186.227 211.821 176.747 214.991 176.717C215.771 176.717 219.461 179.587 220.761 180.187C226.251 182.687 239.621 183.877 246.001 184.317C259.281 185.247 273.611 185.367 284.551 176.727C289.231 181.007 292.701 191.467 287.041 195.997C281.901 200.107 262.501 201.857 255.771 201.757C247.781 201.637 219.921 198.717 213.491 195.617C213.121 195.437 210.111 193.587 209.961 193.437ZM285.981 188.667C286.091 186.597 285.571 184.247 284.091 182.707C280.461 183.787 282.741 189.327 285.981 188.667ZM216.361 185.407C216.141 188.337 219.581 188.997 221.771 189.507C236.171 192.847 255.691 193.677 270.261 191.627C273.621 191.157 276.411 188.867 279.711 190.897L280.571 190.617C282.111 189.527 279.561 183.637 277.331 185.487L277.261 187.567C269.741 189.057 261.881 190.067 254.201 190.327C243.371 190.697 231.171 189.317 220.591 186.897C219.011 186.537 217.881 185.657 216.361 185.417V185.407Z" fill="white"/>
<path d="M315.671 161.247C314.341 162.727 312.831 164.017 311.121 165.007C305.611 168.197 298.461 167.857 292.821 164.917C287.171 161.977 282.971 156.707 280.461 150.857C279.511 148.647 278.011 144.917 279.001 142.507C279.951 140.197 283.381 138.397 285.371 137.137C292.431 132.667 299.581 128.317 306.801 124.107C309.461 122.557 312.401 120.967 315.451 121.417C317.921 121.787 320.051 123.507 321.381 125.637C322.701 127.757 323.311 130.257 323.651 132.737C324.721 140.587 323.241 148.767 319.481 155.747C318.421 157.707 317.171 159.587 315.681 161.247H315.671Z" fill="#FFE35A"/>
<path d="M251.661 516.727C251.281 519.817 253.801 527.767 250.921 529.787C248.201 530.157 245.461 529.647 242.711 529.707C240.631 529.757 238.131 531.147 236.191 529.727C235.341 528.737 235.691 519.647 236.051 517.877C241.321 515.527 246.101 514.917 251.661 516.727Z" fill="#EC2128"/>
<path d="M287.97 454.297C299.51 465.947 293.6 496.267 278.55 502.987C263.38 509.767 256.02 490.077 256.61 478.327C257.36 463.547 272.36 438.537 287.96 454.297H287.97ZM276.91 466.807C277.74 465.637 281.58 463.207 281.01 461.027C279.34 458.767 277.04 456.427 274.01 457.657L260.19 477.557C259.8 478.367 259.25 480.177 259.33 481.017C259.64 484.167 273.04 494.367 275.98 497.007C277.56 498.467 281.13 496.917 280.81 494.847C280.43 492.397 275.51 489.047 273.65 487.107C272.87 486.297 268.59 481.577 268.57 481.057C269.15 478.757 271.37 477.277 272.58 475.277C274.06 472.817 275.16 469.267 276.9 466.817L276.91 466.807Z" fill="white"/>
<path d="M202.951 497.987C191.931 487.157 188.241 455.797 205.901 449.877C220.531 444.967 230.171 465.537 231.031 477.247C232.231 493.667 219.381 514.147 202.951 497.987ZM214.031 457.547C211.131 455.137 206.291 458.927 207.201 462.427L219.521 480.507C219.511 482.487 198.391 497.057 211.331 496.947C214.071 493.957 228.011 483.637 228.311 480.477C228.721 476.237 216.061 462.227 214.031 457.547Z" fill="white"/>
<path d="M240.42 435.547C240.2 435.437 242.69 430.717 243.01 430.327C244.31 428.707 245.4 428.537 247.43 429.557C248.55 430.117 249.59 430.887 250.79 431.247C252.23 431.687 253.8 431.507 255.23 431.027C260.03 429.427 263.18 424.737 264.8 419.937C266.62 420.757 267.48 423.227 266.56 425.007C266.07 425.947 265.22 426.627 264.37 427.257C261.63 429.317 258.77 431.217 255.8 432.947C253.46 434.307 251.01 435.577 248.37 436.207C245.73 436.837 242.85 436.767 240.42 435.547Z" fill="#127700"/>
<path d="M253.19 547.297C254.39 548.317 255.95 552.227 255.55 553.837C251.88 557.507 248.6 551.717 247.38 548.537C248.85 547.377 251.56 545.897 253.19 547.297Z" fill="#127700"/>
<path d="M318.041 448.147L320.581 453.327L317.801 456.287C316.941 456.287 315.271 449.667 314.801 448.417L318.041 448.147Z" fill="#127700"/>
<path d="M216.361 185.407C217.881 185.647 219.011 186.527 220.591 186.887C231.171 189.307 243.371 190.687 254.201 190.317C261.881 190.057 269.741 189.037 277.261 187.557L277.331 185.477C279.571 183.627 282.111 189.517 280.571 190.607L279.711 190.887C276.411 188.867 273.621 191.147 270.261 191.617C255.691 193.677 236.171 192.837 221.771 189.497C219.571 188.987 216.141 188.327 216.361 185.397V185.407Z" fill="black"/>
<path d="M285.98 188.667C282.74 189.327 280.45 183.787 284.09 182.707C285.57 184.237 286.09 186.597 285.98 188.667Z" fill="black"/>
<path d="M276.91 466.807C275.17 469.267 274.07 472.807 272.59 475.267C271.38 477.277 269.17 478.747 268.58 481.047C268.59 481.567 272.88 486.287 273.66 487.097C275.52 489.047 280.44 492.387 280.82 494.837C281.14 496.907 277.58 498.457 275.99 496.997C273.05 494.357 259.65 484.167 259.34 481.007C259.26 480.167 259.81 478.357 260.2 477.547L274.02 457.647C277.04 456.427 279.34 458.757 281.02 461.017C281.59 463.197 277.75 465.627 276.92 466.797L276.91 466.807Z" fill="black"/>
<path d="M214.031 457.547C216.061 462.227 228.721 476.237 228.311 480.477C228.011 483.647 214.071 493.957 211.331 496.947C198.391 497.067 219.511 482.497 219.521 480.507L207.201 462.427C206.281 458.927 211.131 455.137 214.031 457.547Z" fill="black"/>
<path d="M135.261 164.277C134.161 165.627 133.691 167.207 135.181 168.687C135.971 169.477 137.021 169.587 138.001 169.667C147.061 170.387 156.121 170.997 165.181 171.487C165.871 171.527 166.601 171.547 167.171 171.027C168.181 170.117 168.101 167.927 167.331 166.657C166.561 165.387 165.351 164.797 164.211 164.267C159.301 161.987 154.331 159.697 149.151 159.227C145.951 158.937 142.641 159.397 139.631 160.937C138.751 161.387 136.561 162.667 135.251 164.277H135.261Z" fill="#BC000E"/>
<path d="M326.741 164.277C325.641 165.627 325.171 167.207 326.661 168.687C327.451 169.477 328.501 169.587 329.481 169.667C338.541 170.387 347.601 170.997 356.661 171.487C357.351 171.527 358.081 171.547 358.651 171.027C359.661 170.117 359.581 167.927 358.811 166.657C358.041 165.387 356.831 164.797 355.691 164.267C350.781 161.987 345.811 159.697 340.631 159.227C337.431 158.937 334.121 159.397 331.111 160.937C330.231 161.387 328.041 162.667 326.731 164.277H326.741Z" fill="#BC000E"/>
<path d="M185.641 69.997C180.521 74.437 174.161 80.787 178.111 81.537C179.291 81.757 180.451 81.167 181.501 80.597C195.761 72.837 210.021 65.087 224.281 57.327C221.521 53.947 216.251 54.467 212.061 55.677C204.511 57.857 197.341 61.287 190.881 65.747C190.241 66.187 188.081 67.877 185.641 69.997Z" fill="#F4424F"/>
<path d="M39.721 174.037C39.381 174.557 39.061 175.167 39.171 175.777C39.421 177.127 41.281 177.297 42.631 177.047C44.931 176.617 58.921 172.197 52.981 168.297C49.311 165.887 41.541 171.297 39.721 174.037Z" fill="#F4424F"/>
<path d="M66.8806 184.387C66.5406 184.907 66.2206 185.517 66.3306 186.127C66.5806 187.477 68.4406 187.647 69.7906 187.397C72.0906 186.957 86.0806 182.547 80.1406 178.647C76.4706 176.237 68.7006 181.647 66.8806 184.387Z" fill="#F4424F"/>
<path d="M18.7208 170.057C18.4608 170.447 18.2208 170.907 18.3108 171.377C18.5008 172.407 19.9108 172.537 20.9408 172.337C22.6908 172.007 33.3008 168.657 28.7908 165.697C26.0008 163.867 20.1108 167.977 18.7208 170.057Z" fill="#F4424F"/>
<path d="M451.651 172.927C451.991 173.447 452.311 174.057 452.201 174.667C451.951 176.017 450.091 176.187 448.741 175.937C446.441 175.497 432.451 171.087 438.391 167.187C442.061 164.777 449.831 170.187 451.651 172.927Z" fill="#F4424F"/>
<path d="M424.491 183.287C424.831 183.807 425.151 184.417 425.041 185.027C424.791 186.377 422.931 186.547 421.581 186.297C419.281 185.857 405.291 181.447 411.231 177.547C414.901 175.137 422.671 180.547 424.491 183.287Z" fill="#F4424F"/>
<path d="M472.65 168.947C472.91 169.337 473.15 169.807 473.06 170.267C472.87 171.297 471.46 171.427 470.43 171.227C468.68 170.897 458.07 167.547 462.58 164.587C465.37 162.757 471.26 166.867 472.64 168.947H472.65Z" fill="#F4424F"/>
<path d="M177.441 135.217C177.971 139.297 178.501 143.417 179.911 147.277C181.321 151.137 183.701 154.787 187.201 156.957C186.981 153.307 186.771 149.667 186.551 146.017C186.441 144.197 186.341 142.327 186.961 140.617C187.581 138.907 189.101 137.387 190.921 137.367C193.961 137.327 196.521 141.277 199.331 140.097C200.351 138.157 198.611 135.947 196.931 134.527C193.341 131.487 188.661 127.637 184.151 126.107C178.241 124.107 176.901 130.977 177.451 135.217H177.441Z" fill="white"/>
<path d="M287.701 139.057C285.891 139.937 283.951 140.947 283.141 142.787C282.131 145.077 283.261 147.717 284.461 149.917C286.521 153.717 289.261 157.727 293.481 158.627C292.971 157.547 292.471 156.447 292.001 155.347C290.981 152.987 290.091 150.107 291.561 147.997C292.251 147.017 293.331 146.407 294.331 145.747C296.121 144.557 297.771 143.077 298.811 141.187C300.031 138.987 299.781 135.437 296.701 135.187C293.951 134.967 290.071 137.897 287.701 139.057Z" fill="white"/>
<path d="M413.001 249.567L421.611 249.127C422.811 249.517 422.571 251.027 422.471 251.987C422.001 256.347 420.491 262.557 419.521 266.997C415.201 286.637 409.071 306.047 404.041 325.507C403.341 328.237 402.741 331.097 402.361 333.897C400.981 333.297 400.871 331.527 400.111 330.427C397.041 325.977 393.921 320.347 389.691 316.667C388.431 315.577 384.641 314.817 385.031 312.537C386.461 309.337 388.441 306.407 389.951 303.267C397.101 288.467 404.161 272.987 410.241 257.737C411.311 255.067 411.961 252.247 412.981 249.557L413.001 249.567Z" fill="#F2BA7C"/>
<path d="M387.781 245.867C393.061 247.317 398.531 248.127 404.011 248.507C404.641 249.047 397.571 260.807 396.851 262.277C391.431 273.317 386.041 285.827 381.171 297.187C380.261 299.307 377.211 308.767 376.271 309.697C374.791 311.157 369.661 310.307 367.351 310.567C363.891 310.957 356.501 312.657 353.131 313.767C342.421 317.277 334.871 327.997 323.621 330.497C322.611 330.727 318.901 331.617 318.331 330.647L347.431 295.157C359.991 280.157 373.631 266.017 385.201 250.087C386.091 248.857 386.941 247.187 387.781 245.867Z" fill="#FFD6A1"/>
<mask id="mask8_1_513" style="mask-type:luminance" maskUnits="userSpaceOnUse" x="318" y="245" width="87" height="87">
<path d="M387.781 245.867C393.061 247.317 398.531 248.127 404.011 248.507C404.641 249.047 397.571 260.807 396.851 262.277C391.431 273.317 386.041 285.827 381.171 297.187C380.261 299.307 377.211 308.767 376.271 309.697C374.791 311.157 369.661 310.307 367.351 310.567C363.891 310.957 356.501 312.657 353.131 313.767C342.421 317.277 334.871 327.997 323.621 330.497C322.611 330.727 318.901 331.617 318.331 330.647L347.431 295.157C359.991 280.157 373.631 266.017 385.201 250.087C386.091 248.857 386.941 247.187 387.781 245.867Z" fill="white"/>
</mask>
<g mask="url(#mask8_1_513)">
<path d="M385.26 262.147C385.12 265.267 382.81 267.777 380.87 270.217C378.92 272.657 377.14 275.817 378.2 278.747C379.73 278.497 381.23 279.737 381.68 281.227C382.12 282.717 381.7 284.347 380.98 285.717C378.9 289.667 374.53 292.047 372.55 296.047C371.25 298.667 371.12 301.687 370.39 304.527C369.32 308.667 366.9 312.437 363.58 315.137C366.91 316.117 370.59 314.857 373.3 312.687C376.02 310.517 377.95 307.537 379.8 304.607C388.13 291.407 395.86 277.827 402.6 263.747C405.96 256.727 409.14 249.207 408.53 241.447C408.49 240.977 408.43 240.477 408.11 240.127C407.75 239.737 407.18 239.657 406.65 239.667C404.27 239.687 402.08 240.947 399.72 241.267C395.37 241.857 390.55 239.287 386.76 241.507C385.41 242.297 384.44 243.587 383.51 244.837C380.64 248.707 356.82 277.537 359.98 280.057C363.22 282.647 370.74 274.957 372.56 273.087C376.43 269.087 379.97 264.337 385.26 262.137V262.147Z" fill="#F2BA7C"/>
</g>
<path d="M99.4508 315.727C97.5108 316.777 91.9508 321.507 90.3408 323.207C89.5908 323.997 89.5108 325.497 88.5308 325.737L70.0308 249.597C73.1508 248.467 76.3608 249.537 79.5608 249.547C87.9908 271.237 97.3908 292.597 108.111 313.227C105.681 314.407 101.541 314.597 99.4508 315.727Z" fill="#F2BA7C"/>
<path d="M170.541 336.587C165.191 334.947 159.751 332.097 154.521 329.657C144.961 325.197 134.231 322.957 124.481 318.907C123.411 318.457 118.971 315.867 118.471 315.007C117.091 312.607 116.751 309.467 115.741 306.967C107.731 287.367 98.5909 268.197 89.1209 249.267C88.8909 248.177 89.1809 248.617 89.8909 248.517C94.5809 247.857 99.8609 247.767 104.141 245.837C105.041 245.707 105.131 246.727 105.621 247.177C112.891 253.957 118.431 263.487 124.791 271.207C136.861 285.847 149.311 300.087 161.461 314.647C166.321 320.467 171.191 326.287 176.051 332.117C177.171 333.457 180.321 338.897 182.091 339.347C178.441 338.417 174.081 337.677 170.541 336.587Z" fill="#FFD6A1"/>
<mask id="mask9_1_513" style="mask-type:luminance" maskUnits="userSpaceOnUse" x="89" y="245" width="94" height="95">
<path d="M170.541 336.587C165.191 334.947 159.751 332.097 154.521 329.657C144.961 325.197 134.231 322.957 124.481 318.907C123.411 318.457 118.971 315.867 118.471 315.007C117.091 312.607 116.751 309.467 115.741 306.967C107.731 287.367 98.5909 268.197 89.1209 249.267C88.8909 248.177 89.1809 248.617 89.8909 248.517C94.5809 247.857 99.8609 247.767 104.141 245.837C105.041 245.707 105.131 246.727 105.621 247.177C112.891 253.957 118.431 263.487 124.791 271.207C136.861 285.847 149.311 300.087 161.461 314.647C166.321 320.467 171.191 326.287 176.051 332.117C177.171 333.457 180.321 338.897 182.091 339.347C178.441 338.417 174.081 337.677 170.541 336.587Z" fill="white"/>
</mask>
<g mask="url(#mask9_1_513)">
<path d="M108.641 266.037C108.781 269.187 111.091 271.727 113.031 274.187C114.981 276.647 116.761 279.837 115.701 282.807C114.171 282.557 112.661 283.807 112.221 285.307C111.781 286.807 112.201 288.457 112.921 289.847C115.001 293.837 119.371 296.237 121.351 300.277C122.651 302.927 122.781 305.977 123.511 308.837C124.581 313.017 127.001 316.827 130.321 319.557C126.991 320.547 123.311 319.277 120.601 317.087C117.891 314.897 115.951 311.887 114.101 308.927C105.771 295.597 98.0411 281.877 91.3011 267.667C87.9411 260.577 84.761 252.987 85.371 245.147C85.411 244.677 85.4711 244.167 85.7911 243.817C86.1511 243.427 86.721 243.347 87.251 243.347C89.631 243.367 91.8211 244.637 94.1811 244.967C98.5311 245.567 103.351 242.967 107.141 245.207C108.491 246.007 109.461 247.307 110.391 248.577C113.261 252.487 137.081 281.607 133.921 284.147C130.681 286.757 123.161 278.997 121.341 277.107C117.471 273.067 113.931 268.277 108.641 266.057V266.037Z" fill="#F2BA7C"/>
</g>
<path d="M353.631 294.397C354.951 292.797 356.281 291.207 357.601 289.617C358.831 288.137 360.081 286.637 361.541 285.367C362.441 284.587 366.041 282.707 364.441 285.557C359.301 294.777 353.131 303.427 346.101 311.297C345.281 312.217 344.141 313.217 342.961 312.837C341.991 312.517 341.541 311.337 341.701 310.337C341.861 309.337 342.491 308.477 343.091 307.657C346.471 303.137 350.021 298.757 353.621 294.407L353.631 294.397Z" fill="white"/>
<path d="M370.761 281.137C370.821 281.047 370.881 280.957 370.931 280.857C371.331 280.217 374.761 275.077 375.441 277.397C376.011 279.347 372.761 282.807 371.841 284.377C370.041 287.417 368.741 291.307 366.291 293.867C366.161 294.007 366.021 294.137 365.831 294.197C365.481 294.297 365.111 294.047 364.961 293.717C364.811 293.387 364.841 293.007 364.891 292.647C365.141 290.957 365.961 289.397 366.791 287.897C368.051 285.607 369.381 283.357 370.761 281.137Z" fill="white"/>
<path d="M144.491 303.107C143.171 301.507 141.841 299.917 140.521 298.327C139.291 296.847 138.041 295.347 136.581 294.077C135.681 293.297 132.081 291.417 133.681 294.267C138.821 303.487 144.991 312.137 152.021 320.007C152.841 320.927 153.981 321.927 155.161 321.547C156.131 321.227 156.581 320.047 156.421 319.047C156.261 318.047 155.631 317.187 155.031 316.367C151.651 311.847 148.101 307.467 144.501 303.117L144.491 303.107Z" fill="white"/>
<path d="M127.361 289.847C127.301 289.757 127.241 289.667 127.191 289.567C126.791 288.927 123.361 283.787 122.681 286.107C122.111 288.057 125.361 291.517 126.281 293.087C128.081 296.127 129.381 300.017 131.831 302.577C131.961 302.717 132.101 302.847 132.291 302.907C132.641 303.007 133.011 302.757 133.161 302.427C133.311 302.097 133.281 301.717 133.231 301.357C132.981 299.667 132.161 298.107 131.331 296.607C130.071 294.317 128.741 292.067 127.361 289.847Z" fill="white"/>
</svg>
