<svg width="580" height="149" viewBox="0 0 580 149" fill="none" xmlns="http://www.w3.org/2000/svg">
<path d="M17.1125 39.7943C12.5906 39.7943 1.90378 38.6915 0.362566 28.4636C-0.0207811 25.9111 -0.00513351 23.4475 0.0026899 21.0596C0.0105133 19.5209 0.0261601 17.4131 1.56737 15.1763C2.94429 13.1841 6.05018 11.7433 9.75847 11.3831C10.3687 11.3253 10.9711 11.2942 11.5813 11.2942C14.6716 11.2942 17.6523 12.0546 19.7099 13.4065C22.0491 14.9406 22.9644 16.5638 23.5668 17.6399C23.6529 17.7867 23.7311 17.9334 23.8171 18.0801C24.9515 19.9167 28.5659 21.7755 34.5509 23.6076C35.5757 23.9234 38.6973 24.875 40.3637 27.094C42.1552 29.4864 41.3807 32.2079 38.2748 34.378C33.0722 38.02 25.4366 38.9805 20.8755 39.5542C19.6082 39.7143 18.3408 39.7943 17.1047 39.7943H17.1125Z" fill="black"/>
<path d="M137.468 41.5106C136.091 41.5106 134.675 41.4217 133.259 41.2438C128.166 40.6035 119.646 39.5273 113.833 35.4629C110.375 33.0438 109.507 30.0065 111.51 27.334C113.356 24.8659 116.845 23.7987 117.995 23.4474C124.676 21.4018 128.713 19.3296 129.981 17.2796C130.082 17.1195 130.168 16.9549 130.262 16.7904C130.935 15.5897 131.96 13.7798 134.565 12.0678C136.865 10.5559 140.19 9.71094 143.632 9.71094C144.305 9.71094 144.986 9.74207 145.659 9.80877C149.797 10.2134 153.263 11.8188 154.796 14.0422C156.518 16.5414 156.533 18.8938 156.541 20.6103C156.557 23.2695 156.572 26.0221 156.142 28.8726C154.421 40.2833 142.498 41.5151 137.452 41.5151L137.468 41.5106Z" fill="black"/>
<path d="M11.0729 27.9434C10.7287 25.6621 10.7443 23.372 10.7521 21.0818C10.7521 19.8411 10.7756 18.5649 11.5736 17.4087C12.7158 18.1602 13.0913 19.1741 13.6781 20.1124C16.1972 24.1769 22.7924 26.9473 29.4579 28.9884C29.8647 29.1129 30.295 29.2508 30.4749 29.4909C30.7331 29.8378 30.3576 30.2291 29.9351 30.5181C27.2282 32.4081 22.7298 33.0573 18.5442 33.5865C12.6845 34.3247 11.4719 30.616 11.0651 27.9389L11.0729 27.9434Z" fill="white"/>
<path d="M144.204 28.2854C144.587 25.7418 144.571 23.1804 144.556 20.6279C144.556 19.2404 144.532 17.8174 143.64 16.5278C142.365 17.3638 141.943 18.4978 141.293 19.5428C138.485 24.0742 131.131 27.1737 123.683 29.4505C123.229 29.5883 122.744 29.744 122.548 30.0108C122.259 30.3977 122.681 30.8335 123.151 31.1581C126.171 33.2659 131.193 33.9952 135.864 34.5822C142.404 35.4093 143.758 31.2693 144.211 28.281L144.204 28.2854Z" fill="white"/>
<path d="M578.951 27.365C576.549 22.2377 570.032 17.7197 559.58 13.9398C554.111 11.961 548.486 10.3245 542.854 9.07495C536.047 7.56746 529.405 6.65584 522.998 6.34456C522.802 4.32123 520.995 2.39128 517.905 1.18172C517.138 0.883781 516.332 0.639206 515.503 0.456884C511.349 -0.463622 506.522 0.0166389 503.15 1.80874L482.496 12.7837C479.241 14.5135 477.974 17.1372 479.226 19.5696C480.266 21.5885 482.895 23.1938 486.267 23.9409C486.947 24.0921 487.667 24.2077 488.41 24.2878L488.95 24.3456C485.805 25.0037 482.637 25.6841 479.445 26.3867C475.588 27.236 472.944 29.2238 472.458 31.5006C456.553 32.0076 440.516 32.4567 424.524 32.8391C424.36 30.9181 422.647 29.0815 419.697 27.9342C417.796 27.2005 415.621 26.8403 413.454 26.8403C410.591 26.8403 407.759 27.4673 405.615 28.6857C403.526 29.8731 401.375 31.1093 399.184 32.3766C398.058 31.8564 396.955 31.305 395.875 30.7135C392.206 28.6946 388.466 25.8886 384.742 22.3711C382.677 20.4145 379.016 19.3117 375.229 19.3117C373.594 19.3117 371.936 19.5162 370.371 19.952C366.631 20.9882 364.355 23.0738 364.159 25.3061C360.576 26.2222 356.868 27.1738 352.972 28.1832C348.966 29.2238 346.431 31.5095 346.486 33.9998C329.869 34.1865 313.143 34.3111 296.502 34.3689C296.737 32.1632 294.914 29.9798 291.511 28.7124C289.649 28.0187 287.537 27.6807 285.432 27.6807C282.498 27.6807 279.588 28.3433 277.429 29.6196C275.77 30.6023 274.104 31.5851 272.445 32.5679C271.788 32.0921 271.006 31.6607 270.098 31.3005C268.181 30.5356 265.96 30.1577 263.738 30.1577C261.273 30.1577 258.817 30.6201 256.798 31.5451C255.586 32.0965 254.381 32.6479 253.168 33.1993C227.226 33.1193 201.041 32.888 175.075 32.519C175.623 30.1577 173.776 27.7608 170.123 26.4134C168.269 25.7285 166.172 25.395 164.083 25.395C161.126 25.395 158.192 26.0665 156.033 27.3606C152.239 29.6374 148.429 31.8831 144.712 34.0398C141.998 32.9681 139.377 31.7274 136.889 30.3266C133.282 28.2989 123.425 26.2622 119.677 22.9226C108.365 25.6218 98.3431 26.2088 94.893 26.9114C91.7636 27.5473 89.3774 28.9259 88.2509 30.6201C71.8061 30.1754 55.2909 29.673 38.9243 29.1082C38.4783 27.7964 37.3048 26.5601 35.4585 25.6129C33.3618 24.5368 30.7019 23.9943 28.0341 23.9943C25.7653 23.9943 23.4887 24.39 21.5485 25.186C17.9576 26.658 14.3666 28.0721 10.8852 29.3839C6.48061 31.0426 4.74381 34.2399 6.73878 37.0192C8.24087 39.1048 9.35962 41.3016 10.0637 43.5472C10.8304 45.9886 11.4641 48.7545 11.9414 51.7695C12.2152 53.5127 13.7564 55.1092 16.1738 56.1764C15.4775 56.7545 14.9455 57.4037 14.6091 58.1152C13.3104 60.8901 15.4775 63.7984 19.8195 65.208L20.1638 73.6038C18.4974 73.5593 16.8466 73.5015 15.2115 73.4303C14.9299 73.417 14.6482 73.4125 14.3666 73.4125C10.6427 73.4125 7.1456 74.4753 5.08804 76.263C2.87402 78.1841 2.67844 80.6387 4.5717 82.6665C6.81702 85.0678 8.48341 87.5359 9.53174 90.0083C10.6192 92.5697 11.3233 95.269 11.6206 98.035C11.9022 100.708 15.1333 102.989 19.6631 103.718C22.1118 104.114 24.6309 104.492 27.1579 104.843C46.9589 110.299 67.8161 115.013 89.2132 118.864L92.7259 120.51C93.0544 120.665 93.3987 120.807 93.7507 120.936C93.3204 121.332 92.5616 121.741 91.5367 122.124C87.2182 123.734 85.4266 126.82 87.2025 129.572C88.822 132.076 93.0075 133.699 97.5998 133.699C98.0614 133.699 98.523 133.681 98.9846 133.65C110.907 132.801 123.464 131.347 136.349 129.346C136.498 131.004 137.773 132.565 139.94 133.69C141.99 134.753 144.658 135.335 147.411 135.335C147.693 135.335 147.975 135.331 148.264 135.318C150.744 135.211 153.263 135.082 155.775 134.944C188.938 139.324 223.025 141.868 257.166 142.504C259.216 143.02 261.242 143.527 263.206 144.007C264.614 144.354 266.116 144.523 267.603 144.523C269.73 144.523 271.851 144.171 273.689 143.487C274.691 143.113 275.551 142.646 276.279 142.126C277.116 142.237 277.961 142.299 278.806 142.299C281.364 142.299 283.891 141.797 285.925 140.827C287.067 140.285 288.209 139.738 289.344 139.191C310.788 137.928 332.592 135.914 354.262 133.197C354.544 133.219 354.818 133.241 355.1 133.263C354.974 133.53 354.833 133.788 354.677 134.041C353.77 135.509 352.15 137.145 349.874 138.915C346.611 141.445 347.112 144.954 351.063 147.151C353.206 148.343 356.007 148.947 358.816 148.947C361.186 148.947 363.572 148.516 365.567 147.64C374.024 143.945 383.029 139.92 392.793 135.469C393.262 135.856 393.802 136.216 394.436 136.545C396.548 137.639 399.224 138.19 401.899 138.19C404.426 138.19 406.953 137.701 409.011 136.723C421.129 130.96 432.997 125.201 445.045 119.344C444.2 121.483 445.35 123.8 448.37 125.374C450.49 126.482 453.182 127.033 455.865 127.033C458.603 127.033 461.334 126.459 463.469 125.321C463.469 125.321 470.557 121.523 471.715 120.905C472.255 122.195 473.515 123.396 475.439 124.294C477.497 125.259 480 125.735 482.496 125.735C485.328 125.735 488.16 125.121 490.311 123.903L491.109 123.449C503.251 116.596 515.8 109.512 527.989 102.766C531.494 100.828 532.347 97.8171 530.094 95.3491C529.734 94.9533 529.374 94.5531 529.006 94.1528C529.296 89.8883 529.577 85.6282 529.867 81.3725C531.854 81.3502 533.817 81.0212 535.546 80.403C538.574 79.318 540.499 77.4725 540.71 75.4403C541.023 72.3986 541.57 69.3347 542.314 66.3109C555.613 60.77 572.457 49.1548 577.715 39.8652C580.281 35.3294 580.688 31.1226 578.927 27.3695L578.951 27.365Z" fill="black"/>
<path d="M22.6986 97.635C22.37 94.5222 21.5799 91.4672 20.3203 88.51C19.0607 85.5529 17.0814 82.5957 14.3745 79.6963C18.2784 79.8653 22.2057 79.9631 26.1722 79.9942C25.0456 80.6035 23.9269 81.1949 22.8081 81.773C25.7497 82.4311 28.707 83.0759 31.6721 83.703C31.4139 77.3306 31.1557 70.9537 30.8975 64.5813C30.8506 63.5007 30.3499 62.5402 29.372 61.7086C28.4019 60.8771 27.0484 60.2145 25.3273 59.712C30.7724 59.8587 36.2566 59.9388 41.7643 59.9566C48.4533 62.1934 55.1345 64.4924 61.8235 66.8492C61.182 67.5207 60.5404 68.1833 59.8989 68.8459C59.8989 75.6674 59.8911 82.4845 59.8911 89.2971C75.0529 92.0142 90.4337 94.3666 105.979 96.3588C106.167 78.1399 106.354 59.9254 106.534 41.7065C106.558 39.7588 105.948 37.9311 104.727 36.2324C103.499 34.5337 101.465 33.3997 98.6248 32.8305C105.259 31.4831 124.81 32.3814 129.089 34.7916C133.369 37.2063 137.992 39.2341 142.952 40.8483C141.693 41.462 140.707 42.2935 139.979 43.343C139.252 44.3924 138.681 45.5131 138.258 46.7093C137.836 47.9055 137.531 49.1017 137.335 50.2979C137.139 51.4986 137.038 52.5569 137.022 53.4774C136.208 74.9115 135.395 96.301 134.581 117.633C135.481 119.291 136.388 120.959 137.288 122.627C123.894 124.814 110.642 126.438 97.6234 127.367C100.479 126.304 102.544 125.032 103.82 123.592C105.087 122.151 105.736 120.345 105.76 118.197C105.814 113.132 105.861 108.063 105.916 102.998C103.866 107.271 101.825 111.478 99.7983 115.618C98.0693 114.809 96.3482 114 94.627 113.19C72.8858 109.339 51.5905 104.572 30.9601 98.8491C28.1906 98.4711 25.4446 98.062 22.7064 97.6217L22.6986 97.635ZM22.9803 51.1873C22.4717 48.0033 21.8067 45.0773 20.9696 42.4225C20.1325 39.7677 18.8104 37.1529 16.9953 34.6271C20.6489 33.253 24.3259 31.8033 28.0264 30.2825C26.4539 31.8389 24.8892 33.3642 23.3323 34.8583C47.3502 35.7344 71.4619 36.4859 95.6441 37.1084C97.686 37.1307 99.7279 37.1485 101.77 37.1663C100.878 37.8778 100.315 38.6204 100.088 39.4075C99.8609 40.1946 99.6966 41.1151 99.6027 42.169C99.0472 56.3057 98.4918 70.3979 97.9441 84.45C98.4605 85.4417 98.9768 86.4378 99.4932 87.4339C88.9238 87.1182 78.4247 86.5934 68.0431 85.833C68.2856 76.2277 68.5281 66.6002 68.7785 56.946C68.7785 55.9054 69.1149 54.9227 69.8112 53.9977C70.5075 53.0728 71.3367 52.299 72.299 51.6898C72.2521 51.6231 72.213 51.5608 72.166 51.4941C71.2037 52.1078 69.9989 52.5881 68.5516 52.9349C67.1043 53.2818 65.6413 53.393 64.1548 53.2729C52.2085 52.3124 40.3091 51.2718 28.4801 50.1467C26.6416 50.5069 24.8031 50.8493 22.9724 51.1828L22.9803 51.1873ZM25.781 87.176C29.2077 88.012 32.65 88.8302 36.1079 89.6218C35.7246 89.3905 35.3491 89.1637 34.9657 88.9369C44.4946 90.8402 54.1331 92.5434 63.881 94.0598C53.4524 92.1921 43.1334 90.1332 32.9473 87.8741C33.2915 88.1454 33.6279 88.4167 33.9721 88.6924C31.2339 88.2077 28.5036 87.7007 25.781 87.176ZM28.6913 39.5676C32.337 39.7899 35.9828 40.0034 39.6285 40.2168C39.2295 40.0567 38.8305 39.8966 38.4315 39.7366C46.7321 40.0389 55.0562 40.3102 63.396 40.5503C54.3521 40.0701 45.3161 39.5676 36.3035 39.0517C36.6634 39.2607 37.0154 39.4742 37.3753 39.6832C34.4807 39.6476 31.586 39.6076 28.6913 39.5631V39.5676ZM93.1249 59.7387C93.4535 55.8832 93.7899 52.0189 94.1263 48.1501C93.876 46.0156 93.6256 43.8811 93.3675 41.751C93.2892 47.7499 93.2032 53.7443 93.1249 59.7387ZM129.253 83.116C129.77 71.9721 130.286 60.8059 130.81 49.622C130.49 47.3274 130.169 45.0328 129.84 42.7471C129.645 56.2034 129.449 69.6597 129.253 83.1204V83.116Z" fill="white"/>
<path d="M147.427 129.012C147.318 124.872 146.692 120.945 145.55 117.263C144.407 113.577 142.491 109.984 139.799 106.502C157.011 108.65 174.387 110.375 191.864 111.687C191.903 108.65 191.95 105.617 191.989 102.58C189.517 102.415 187.053 102.242 184.588 102.059C173.823 101.948 163.09 101.677 152.411 101.232C153.67 100.418 154.507 99.569 154.922 98.6974C155.337 97.8258 155.556 96.7318 155.579 95.42C155.728 86.046 155.876 76.6764 156.033 67.3023C156.056 65.7682 155.79 64.443 155.227 63.3179C154.664 62.1929 153.052 61.5703 150.377 61.4369C157.551 61.1434 164.733 60.801 171.93 60.4141C173.886 60.7165 175.826 60.9744 177.743 61.1967C179.66 61.4191 181.647 61.5658 183.704 61.6414C198.311 62.1573 212.956 62.5486 227.617 62.811C227.86 61.1034 228.094 59.4002 228.337 57.6926C206.791 57.3591 185.277 56.7943 163.841 55.9983C161.877 56.1451 159.913 56.2918 157.95 56.4341C157.645 53.0589 157.073 49.9106 156.228 47.0023C155.384 44.0985 154.179 41.248 152.622 38.4598C156.448 36.2408 160.265 33.9818 164.091 31.6917C162.409 33.9996 160.719 36.2897 159.037 38.571C191.645 39.1135 224.339 39.4292 257.041 39.5093C259.278 38.4954 261.516 37.4771 263.746 36.4587C262.76 38.1085 262.11 39.6204 261.79 40.9945C261.469 42.3686 261.226 43.9606 261.039 45.7616C260.264 51.5737 259.482 57.3813 258.707 63.1845C259.607 63.189 260.499 63.1934 261.399 63.1978C260.71 69.3212 260.022 75.4446 259.325 81.5635C235.135 81.3545 210.977 80.643 186.943 79.4334C186.92 81.1322 186.896 82.8309 186.873 84.5296C211.72 85.8992 236.724 86.6819 261.751 86.882C263.417 86.6997 265.091 86.5129 266.758 86.3261C264.95 89.3811 263.746 92.6541 263.151 96.1449C262.556 99.6357 262.298 103.073 262.384 106.453C259.763 106.035 257.135 105.608 254.514 105.172C244.563 105.012 234.619 104.732 224.691 104.332C224.66 107.436 224.636 110.539 224.605 113.648C239.157 114.302 253.755 114.666 268.354 114.746C270.575 113.501 272.797 112.247 275.019 110.989C272.664 115.315 270.841 119.789 269.566 124.423C268.291 129.052 267.649 133.645 267.642 138.204C264.997 137.554 262.361 136.892 259.724 136.22C225.043 135.655 190.44 133.094 156.541 128.545C153.506 128.723 150.478 128.878 147.451 129.012H147.427ZM151.675 113.586C155.36 114.066 159.053 114.528 162.753 114.973C162.354 114.746 161.955 114.515 161.556 114.288C171.766 115.262 182.03 116.08 192.326 116.738C181.31 115.756 170.342 114.604 159.428 113.279C159.78 113.577 160.132 113.87 160.484 114.168C157.543 113.99 154.601 113.795 151.667 113.586H151.675ZM162.589 91.5112C163.035 86.1305 163.473 80.7453 163.919 75.3512C163.59 73.4524 163.262 71.5536 162.941 69.6547C162.824 76.9387 162.706 84.2272 162.597 91.5112H162.589ZM163.481 44.1607C167.181 44.2808 170.882 44.4009 174.582 44.512C174.183 44.3164 173.784 44.1207 173.385 43.9295C183.595 43.9873 193.82 44.0095 204.053 43.9962C193.116 43.7294 182.179 43.4314 171.257 43.1068C171.609 43.3736 171.961 43.6404 172.313 43.9073C169.372 43.9962 166.422 44.0807 163.481 44.1607ZM165.319 88.1849C165.75 83.3778 166.188 78.5619 166.618 73.737C166.289 71.8337 165.961 69.9304 165.64 68.0272C165.531 74.7464 165.429 81.4657 165.319 88.1849ZM226.968 43.5604C235.589 43.8717 244.218 44.1607 252.848 44.4364C252.746 47.1401 252.644 49.8483 252.542 52.552C253.098 49.0256 253.646 45.4992 254.193 41.9684C253.653 42.5554 253.114 43.1424 252.574 43.7249C244.031 43.6894 235.495 43.636 226.96 43.5559L226.968 43.5604Z" fill="white"/>
<path d="M278.821 135.98C278.633 133.463 278.383 131.169 278.062 129.087C277.742 127.006 277.358 125.023 276.897 123.138C276.443 121.252 275.895 119.407 275.262 117.597C274.628 115.791 273.9 113.941 273.087 112.051C276.122 110.09 279.158 108.116 282.185 106.133C281.419 107.983 280.652 109.837 279.885 111.687C282.647 111.558 285.416 111.416 288.178 111.264C288.131 95.0065 288.092 78.7487 288.045 62.4864C287.239 62.4864 286.426 62.4953 285.62 62.4997C283.695 63.2557 281.763 64.0072 279.83 64.7588C279.377 59.8094 278.72 55.5048 277.867 51.8494C277.014 48.1941 275.739 44.4809 274.041 40.7055C277.843 38.4643 281.63 36.2231 285.424 33.9774C283.781 36.2186 282.131 38.4599 280.48 40.7011C306.399 40.6788 332.318 40.4965 358.19 40.1541C359.215 39.874 360.232 39.5983 361.256 39.3181C359.707 43.0402 358.839 46.8111 358.675 50.5999C358.503 54.3931 358.401 58.3374 358.37 62.433C356.171 62.0906 353.973 61.7393 351.782 61.3836C346.056 61.5526 340.329 61.7037 334.594 61.8327C339.672 63.4158 344.757 64.9678 349.834 66.4797C350.006 79.7981 350.179 93.1166 350.358 106.435C353.683 106.106 357.008 105.764 360.326 105.408C361.311 105.11 362.297 104.807 363.275 104.509C362.078 108.529 361.366 112.354 361.147 115.965C360.928 119.58 360.756 123.364 360.631 127.318C358.377 127.149 356.124 126.966 353.863 126.775C330.996 129.688 307.932 131.818 284.822 133.099C282.819 134.064 280.824 135.024 278.821 135.976V135.98ZM290.283 45.984C289.837 45.8283 289.391 45.6727 288.937 45.5171C295.782 45.2992 302.62 45.0679 309.458 44.8278C301.681 44.8812 293.897 44.9167 286.113 44.9345C286.832 45.0902 287.544 45.2458 288.264 45.4014C286.074 45.6416 283.883 45.8817 281.692 46.1218C284.556 46.0774 287.419 46.0329 290.283 45.984ZM296.307 74.782C295.923 69.4902 295.54 64.2029 295.164 58.9111C295.211 70.8332 295.258 82.7598 295.305 94.6819C295.642 88.0471 295.97 81.4168 296.307 74.7865V74.782ZM299.013 75.9293C298.63 70.642 298.247 65.3546 297.863 60.0673C297.942 77.8637 298.028 95.6602 298.106 113.457C298.411 100.943 298.716 88.434 299.013 75.9293ZM322.898 62.0773C320.7 62.1173 318.502 62.1573 316.311 62.1885C315.842 59.467 315.372 56.7455 314.903 54.024C315.044 72.5364 315.184 91.0532 315.333 109.566C317.547 109.41 319.761 109.25 321.975 109.081C322.452 112.131 322.937 115.182 323.415 118.228C323.243 99.5112 323.078 80.7898 322.906 62.0728L322.898 62.0773ZM351.438 45.4993C351.407 46.6066 351.376 47.7094 351.344 48.8167C351.728 47.1313 352.103 45.4504 352.486 43.7694C352.181 44.1163 351.868 44.4632 351.563 44.8145C345.578 44.9078 339.593 44.9923 333.609 45.0635C339.554 45.2236 345.5 45.3703 351.438 45.4993ZM399.13 124.458C385.799 130.617 372.358 136.718 358.816 142.633C361.757 140.351 363.869 138.181 365.145 136.122C366.42 134.064 367.038 131.831 367.007 129.425C366.584 100.841 366.162 72.2518 365.739 43.6672C365.708 41.4882 365.051 39.4649 363.776 37.5972C362.5 35.7295 360.427 34.4977 357.564 33.9151C364.182 32.1986 370.801 30.5044 377.412 28.8457C376.684 27.7695 375.949 26.6934 375.221 25.6128C379.469 29.6328 383.78 32.8345 388.138 35.2403C392.495 37.6461 397.182 39.5404 402.196 40.9412C399.818 42.3598 398.308 44.263 397.674 46.6377C397.049 49.0123 396.704 51.5115 396.657 54.1262C396.517 76.0894 396.384 98.1015 396.243 120.154C397.197 121.594 398.16 123.031 399.114 124.458H399.13ZM390.868 50.6132C390.477 48.2475 390.078 45.8817 389.687 43.5115C389.914 57.5681 390.133 71.6248 390.36 85.6814C390.532 73.9772 390.696 62.2863 390.868 50.6177V50.6132Z" fill="#EC2128"/>
<path d="M401.915 131.876C404.285 129.924 406.116 128.007 407.415 126.122C408.713 124.236 409.652 122.111 410.239 119.741C413.454 106.991 416.67 94.4156 419.893 82.0399C418.227 83.0405 416.56 84.0499 414.886 85.0593C416.106 83.9521 417.178 82.8804 418.094 81.8443C419.009 80.8081 419.807 79.732 420.503 78.6203C419.095 79.3451 417.687 80.0699 416.286 80.7992C419.697 77.5975 421.731 74.7648 422.404 72.2701C423.077 69.771 423.687 67.4097 424.235 65.1818C424.783 62.9539 425.307 60.9216 425.815 59.0895C421.872 59.3252 417.929 59.552 413.979 59.7699C412.077 60.5837 410.184 61.3975 408.283 62.2201C407.767 57.6087 407.063 53.5843 406.163 50.1424C405.263 46.7049 403.941 43.2141 402.189 39.6477C405.936 37.4465 409.691 35.2809 413.439 33.1464C411.819 35.2542 410.208 37.3754 408.596 39.5143C434.006 38.9718 459.354 38.2736 484.6 37.4154C485.711 37.0152 486.814 36.6194 487.925 36.2236C486.212 39.3943 485.211 42.6316 484.921 45.8823C484.632 49.1329 484.42 52.4903 484.311 55.95C482.175 55.7766 480.032 55.5898 477.888 55.3942C470.706 55.9811 463.501 56.537 456.287 57.0617C454.903 61.851 453.534 66.6848 452.165 71.5631C455.357 70.2779 458.548 69.0061 461.74 67.7476C464.189 66.7915 466.348 65.9155 468.234 65.124C470.111 64.3324 471.88 63.3541 473.546 62.1935C473.022 63.4919 472.709 64.8527 472.623 66.2712C472.537 67.6854 472.795 69.1128 473.397 70.5403C478.201 82.16 482.895 93.2861 487.456 103.865C476.996 109.406 466.481 115.045 455.896 120.715C457.351 119.669 458.4 118.576 459.041 117.428C459.683 116.281 459.785 115.08 459.346 113.817C455.771 104.381 452.141 94.6602 448.472 84.6814C445.929 94.0021 443.402 103.469 440.883 113.075C428.006 119.345 415.019 125.651 401.93 131.876H401.915ZM416.803 43.8678C416.357 43.7389 415.911 43.6143 415.465 43.4854C422.263 43.1118 429.054 42.725 435.845 42.3336C428.123 42.5871 420.394 42.8183 412.656 43.0362C413.368 43.1563 414.08 43.2808 414.8 43.4009C412.625 43.6766 410.45 43.9523 408.275 44.228C411.123 44.1124 413.971 43.9923 416.811 43.8723L416.803 43.8678ZM427.153 79.8698C428.186 74.4713 429.219 69.0995 430.259 63.7632C425.659 81.0838 421.106 98.8492 416.56 116.988C420.081 104.408 423.609 92.0232 427.153 79.8654V79.8698ZM461.459 98.7736C459.237 94.3445 456.999 89.8264 454.746 85.2283C457.852 92.8192 460.919 100.228 463.947 107.441C463.125 104.572 462.296 101.682 461.459 98.7736ZM480.063 41.6088C480.016 42.4982 479.961 43.392 479.914 44.2814C480.321 42.9117 480.72 41.5465 481.127 40.1858C480.814 40.4748 480.501 40.7639 480.196 41.0529C474.281 41.3064 468.359 41.551 462.429 41.7822C468.312 41.7467 474.195 41.6888 480.063 41.6133V41.6088ZM520.275 98.2399C507.789 105.15 495.217 112.252 482.512 119.416C485.289 117.059 487.299 114.96 488.528 113.106C489.756 111.252 490.39 109.384 490.413 107.485C490.718 84.9393 491.016 62.3936 491.321 39.8478C491.344 38.1269 490.75 36.5527 489.529 35.0941C488.309 33.64 486.282 32.6928 483.443 32.257C490.061 30.7984 496.695 29.4065 503.353 28.0947C502.665 27.272 501.968 26.4405 501.272 25.6089C505.395 28.7173 509.557 31.1097 513.79 32.844C518.014 34.5827 522.56 35.8723 527.426 36.7484C525.001 37.8467 523.42 39.292 522.685 41.0618C521.949 42.8317 521.496 44.6905 521.323 46.6249C521.097 49.8934 520.862 53.1663 520.635 56.4436C524.555 55.9723 528.458 55.4875 532.355 54.9895C533.677 54.1624 538.551 53.7844 539.881 52.9795C537.737 56.9684 532.652 60.4058 531.674 64.0789C530.696 67.7565 530.023 71.4296 529.648 75.0583C528.631 74.8226 527.614 74.578 526.589 74.329C524.116 74.8404 521.636 75.3473 519.156 75.8454C518.71 82.4001 518.265 88.9682 517.826 95.5496C518.64 96.4612 519.454 97.3595 520.259 98.2399H520.275ZM498.221 45.4643C497.908 43.601 497.587 41.7289 497.274 39.8523C497.071 51.0362 496.868 62.2201 496.664 73.4041C497.173 64.0611 497.697 54.7494 498.221 45.4643Z" fill="#EC2128"/>
<path d="M566.496 37.8022C568.084 34.9917 568.882 31.9412 567.544 29.0907C565.612 24.9685 559.572 21.8912 553.243 19.6011C541.766 15.4477 527.246 12.197 513.43 13.0908C511.239 13.2331 509.072 13.4377 506.928 13.7312C506.655 13.7667 506.373 13.8201 506.076 13.8779L511.216 6.70508L490.562 17.68L517.028 20.4682L507.265 14.8029C522.52 15.3054 537.526 18.227 550.067 23.1897C553.431 24.5193 556.717 26.0624 558.547 28.1435C561.497 31.4965 560.049 35.5076 557.076 38.9317C556.662 39.412 556.216 39.8789 555.746 40.3325C550.951 44.9661 544.567 49.1818 536.962 52.3969C534.373 53.4908 531.689 54.5758 528.677 55.2651C525.72 55.941 522.505 55.8254 519.532 56.408C517.756 56.7548 517.787 57.6175 517.717 58.6848C517.639 59.8276 519.375 60.7704 521.214 61.2373C525.619 62.3535 527.16 65.6886 531.564 64.5725C532.871 61.6642 562.248 45.313 566.504 37.7933L566.496 37.8022Z" fill="#EC2128"/>
</svg>
